<?xml version="1.0" encoding="UTF-8"?>
<svg width="354px" height="321px" viewBox="0 0 354 321" version="1.1" xmlns="http://www.w3.org/2000/svg" xmlns:xlink="http://www.w3.org/1999/xlink">
    <!-- Generator: Sketch 53.2 (72643) - https://sketchapp.com -->
    <title>objetos tailandia2-02</title>
    <desc>Created with Sketch.</desc>
    <g id="paginas-(new)" stroke="none" stroke-width="1" fill="none" fill-rule="evenodd">
        <g id="objetos-tailandia2-02">
            <path d="M289.483455,148.134174 C282.006559,148.134174 269.549989,146.287114 257.728808,143.405701 C244.42998,140.154876 238.164754,137.214358 235.637976,135.751487 L231.810869,133.520239 L232.815669,128.791766 C234.529741,120.649928 237.248612,104.366251 240.203907,87.107327 C243.277415,68.9913672 247.119298,46.4424646 248.907252,38.9360147 L249.779064,35.2418957 L253.088995,34.4587424 C258.478317,33.4349776 263.963468,33.0038952 269.446554,33.173189 C286.188301,33.173189 303.09259,35.626084 308.766757,38.8916853 L311.35264,40.3693329 L311.722052,43.6349341 C312.386994,49.5455246 311.308311,67.6171549 307.407321,94.7319887 C303.624543,121.034116 299.694001,138.559017 297.462753,144.262737 L296.191976,147.543115 L293.044586,147.942079 C291.862556,148.078502 290.673302,148.142653 289.483455,148.134174 L289.483455,148.134174 Z" id="Path" fill="#F8FAFB" fill-rule="nonzero"></path>
            <path d="M286.188301,128.451907 C281.610591,125.286002 276.870745,122.361206 271.988108,119.689457 C269.587525,118.407278 267.263681,116.986329 265.028387,115.433832 C263.432528,114.26649 261.866222,112.050019 260.093044,111.266866 C258.319867,110.483712 259.915727,110.350724 257.684479,112.020466 C256.487584,112.921831 255.482784,114.222161 254.359772,115.212185 C252.069418,117.221785 249.453982,119.393927 246.277039,119.571245 C243.848296,119.740385 241.477091,118.781001 239.849272,116.970585 C238.382917,115.201028 237.119062,113.273029 236.081271,111.222536 C234.795717,118.507339 233.672705,124.654353 232.815669,128.73266 L231.810869,133.461133 L235.637976,135.692381 C238.149977,137.170028 244.370874,140.125323 257.728808,143.346595 C269.549989,146.213232 282.006559,148.075068 289.483455,148.075068 C290.683157,148.084717 291.882315,148.020565 293.074139,147.882973 L296.221529,147.484009 L297.492306,144.203631 C298.226165,142.189273 298.852583,140.137382 299.368918,138.056617 C294.935975,134.953557 290.621244,131.62885 286.188301,128.451907 Z" id="Path" fill="#E3E9ED" fill-rule="nonzero"></path>
            <path d="M289.483455,141.854171 C282.361194,141.854171 270.347919,140.051441 258.89615,137.273464 C246.956757,134.318168 240.794967,131.687956 238.209083,130.165979 C239.952707,121.920705 242.745461,105.474487 245.671204,88.2155627 C248.596946,70.9566385 252.542265,47.7723474 254.285889,40.4875447 C259.309397,39.5685838 264.41585,39.1822566 269.520436,39.3349796 C287.695502,39.3349796 302.457202,42.14251 306.343415,44.3737579 C306.890144,49.2499951 305.974003,66.4350368 302.04346,93.6976354 C298.216353,120.295292 294.389246,136.859722 292.497857,141.721183 C291.496814,141.828353 290.490046,141.872769 289.483455,141.854171 Z" id="Path" fill="#C7EBFF" fill-rule="nonzero"></path>
            <path d="M277.322416,124.3736 C273.116045,121.546367 268.821016,118.8669 264.437328,116.335197 C262.41784,115.010205 260.304083,113.834798 258.112997,112.818396 C258.009561,112.818396 257.610596,112.522866 257.492385,112.641078 C254.463207,115.891903 251.773888,119.408704 247.946781,121.891152 C245.916355,123.075528 243.342599,122.741668 241.681555,121.078446 C241.179155,120.443057 240.706308,119.807669 240.203907,119.187057 C239.405978,123.62 238.72626,127.417554 238.090871,130.239861 C240.706308,131.717509 246.882875,134.451157 258.777938,137.347346 C270.244484,140.125323 282.242982,141.928054 289.365244,141.928054 C290.352437,141.939302 291.339391,141.889954 292.320539,141.780289 C292.675174,141.780289 293.369669,138.514688 293.473104,138.174829 C293.650422,137.568993 294.300587,136.194781 294.167598,135.588945 C294.03461,134.98311 292.689951,134.539815 292.113668,134.214733 C287.370419,131.481085 282.952253,128.304143 278.445428,125.245412 L277.322416,124.3736 Z" id="Path" fill="#92CDFA" fill-rule="nonzero"></path>
            <path d="M292.172774,113.542443 C288.125813,112.815184 283.963251,113.894967 280.780111,116.497738 C277.824816,118.994963 276.199403,123.427905 274.869521,127.210683 C274.853683,127.244998 274.857355,127.285155 274.879154,127.316027 C274.900952,127.3469 274.937565,127.363798 274.975201,127.360357 C275.012837,127.356915 275.045777,127.333656 275.061615,127.299342 C277.351969,123.767764 280.336817,122.260564 283.528536,119.911104 C286.253184,117.721709 289.17692,115.79234 292.261433,114.148278 C292.38276,114.083824 292.45047,113.950058 292.430576,113.814121 C292.410683,113.678184 292.307482,113.569429 292.172774,113.542443 L292.172774,113.542443 Z" id="Path" fill="#5EB2FC" fill-rule="nonzero"></path>
            <path d="M274.441003,89.249916 C275.507824,93.9229852 275.891078,98.7261035 275.578791,103.509216 C275.056214,108.362186 274.2121,113.175119 273.052014,117.91628 C271.23322,125.129898 268.662828,132.132854 265.383023,138.810217 C267.023212,139.150076 268.633848,139.460382 270.244484,139.755912 C273.553565,132.881485 275.986095,125.618647 277.484957,118.137927 C279.191397,108.40469 278.320265,98.39431 274.958179,89.1021513 C274.931784,89.0097666 274.858107,88.9384815 274.764901,88.9151484 C274.671696,88.8918153 274.573123,88.9199791 274.506313,88.9890308 C274.439503,89.0580824 274.414607,89.1575313 274.441003,89.249916 Z" id="Path" fill="#5EB2FC" fill-rule="nonzero"></path>
            <path d="M289.143597,97.9237076 C287.001007,93.7862942 283.233006,90.8162225 280.129946,87.4767389 C280.101998,87.2930183 279.969026,87.1427027 279.790087,87.0925505 L279.553663,86.826574 C279.450228,86.6935857 279.27291,86.826574 279.31724,86.9891152 L279.391122,87.2255388 C279.329201,87.3009216 279.292964,87.3941042 279.287687,87.4915154 C279.02171,92.3677525 278.933052,97.4656368 280.602793,102.075897 C281.711029,105.149404 284.740207,110.291618 288.257008,108.089923 C291.773809,105.888228 290.621244,100.923332 289.143597,97.9237076 Z" id="Path" fill="#F8FAFB" fill-rule="nonzero"></path>
            <path d="M295.807787,78.0936765 C291.596492,77.4582881 287.163549,79.0098181 282.981806,79.6747595 C282.838177,79.5638711 282.637811,79.5638711 282.494182,79.6747595 L282.1691,79.6747595 C282.101226,79.6959538 282.055006,79.7588062 282.055006,79.8299125 C282.055006,79.9010188 282.101226,79.9638712 282.1691,79.9850655 L282.37597,79.9850655 C282.388354,80.0863919 282.435327,80.1803397 282.508959,80.2510421 C285.745007,83.5018668 289.247032,86.7083621 293.487881,88.0677979 C296.324964,88.969163 301.762707,89.4567867 302.353766,84.964738 C302.944825,80.9455364 298.866518,78.5665238 295.807787,78.0936765 Z" id="Path" fill="#F8FAFB" fill-rule="nonzero"></path>
            <path d="M269.742083,103.642204 C271.352719,99.209261 271.116296,93.9636119 271.603919,89.2203631 C271.701583,89.0512044 271.701583,88.8427922 271.603919,88.6736335 L271.603919,88.3042216 C271.603919,88.1269039 271.441378,88.038245 271.352719,88.1860098 L271.234507,88.3928804 C271.144415,88.3845629 271.054551,88.4109936 270.983307,88.4667628 C267.392624,91.1856344 263.75761,94.214812 261.526363,98.5147666 C260.048715,101.381403 258.260761,107.218111 261.95488,109.035618 C265.501235,110.749689 268.574742,106.863476 269.742083,103.642204 Z" id="Path" fill="#F8FAFB" fill-rule="nonzero"></path>
            <path d="M255.99996,93.2986705 C259.915727,91.4368345 263.018787,87.5506213 266.343494,84.5657731 C266.528925,84.5415307 266.681,84.4070027 266.727682,84.2259141 L266.993659,83.9894905 C267.111871,83.8860552 266.993659,83.6644081 266.890223,83.7087375 L266.683353,83.7087375 C266.630419,83.633631 266.551394,83.5809478 266.461706,83.5609727 C262.20608,82.6300547 257.758361,81.8764544 253.48796,83.1324549 C250.6361,83.9747141 245.745086,86.6935857 247.207957,90.9196578 C248.567393,94.9536358 253.148101,94.6581063 255.99996,93.2986705 Z" id="Path" fill="#F8FAFB" fill-rule="nonzero"></path>
            <path d="M254.108572,70.4099089 C257.654926,73.0401217 262.25041,73.7789455 266.284388,75.2270402 C266.381679,75.3801938 266.567406,75.4520879 266.742459,75.4043579 L267.052765,75.5225697 C267.200529,75.5225697 267.318741,75.3895814 267.200529,75.2565931 L267.037988,75.0940519 C267.068558,74.9979137 267.068558,74.8946605 267.037988,74.7985224 C265.35347,70.3655795 263.417752,65.696213 260.122597,62.4010588 C257.920902,60.1993639 253.19243,57.1258569 250.902076,60.9234112 C248.744711,64.3663302 251.522688,68.5037435 254.108572,70.4099089 Z" id="Path" fill="#F8FAFB" fill-rule="nonzero"></path>
            <path d="M266.978882,56.7121155 C267.584718,61.4553644 270.141048,65.8439778 271.840343,70.2178147 C271.805404,70.4080252 271.879509,70.601836 272.032437,70.7202149 L272.165425,71.0600739 C272.165425,71.1335213 272.224966,71.1930622 272.298414,71.1930622 C272.371861,71.1930622 272.431402,71.1335213 272.431402,71.0600739 C272.431402,70.971415 272.431402,70.8975326 272.431402,70.8088738 C272.517706,70.7645699 272.585698,70.691348 272.623496,70.6020031 C274.500109,66.1690603 276.273286,61.5144703 276.273286,56.5347978 C276.273286,53.2100907 275.179827,47.1665119 271.190178,47.6689121 C267.436953,48.1713123 266.535588,53.1953142 266.978882,56.7121155 Z" id="Path" fill="#F8FAFB" fill-rule="nonzero"></path>
            <path d="M286.646372,60.1698109 C283.558089,63.4649651 281.844017,68.3264258 279.671875,72.4342862 C279.504132,72.5304347 279.406447,72.7143121 279.420675,72.9071334 L279.243357,73.2322159 C279.154699,73.3799806 279.243357,73.5572984 279.435452,73.453863 L279.612769,73.3060983 C279.69343,73.3381788 279.783309,73.3381788 279.863969,73.3060983 C284.134371,72.5081685 288.552537,71.4590387 292.143221,68.5776259 C294.551787,66.656684 298.305012,62.1794117 295.615693,58.8103751 C292.926374,55.4413386 288.892396,57.7760218 286.646372,60.1698109 Z" id="Path" fill="#F8FAFB" fill-rule="nonzero"></path>
            <path d="M282.553288,76.0397464 C280.233381,69.1686849 270.451354,68.3264258 266.845894,74.104028 C265.512091,76.7915267 265.447074,79.934017 266.668576,82.6743841 C267.65246,86.3175273 270.788695,88.9712648 274.544438,89.3385749 C280.129946,89.560222 284.799313,82.7482665 282.553288,76.0397464 Z" id="Path" fill="#92CDFA" fill-rule="nonzero"></path>
            <path d="M252.202406,121.329646 C249.069793,121.935481 246.18838,124.565694 244.164003,127.240236 C243.942356,127.520989 244.164003,128.02339 244.533415,127.786966 C245.807265,126.826032 247.216486,126.059177 248.715158,125.511389 C250.126272,125.141519 251.556877,124.850465 253.000336,124.639576 C254.847395,124.1224 254.034689,120.960234 252.202406,121.329646 Z" id="Path" fill="#5EB2FC" fill-rule="nonzero"></path>
            <path d="M251.685229,103.937733 C250.399676,103.849074 249.202781,105.20851 248.582169,106.361075 C247.843346,107.735288 247.53304,109.316371 246.853322,110.794018 C246.749886,111.000889 247.015863,111.16343 247.134075,110.986112 C248.043614,109.863314 249.137986,108.903864 250.370123,108.149029 C251.428219,107.462769 252.196285,106.410625 252.527489,105.193734 C252.607571,104.913542 252.560142,104.6123 252.39784,104.37027 C252.235538,104.12824 251.974848,103.970008 251.685229,103.937733 Z" id="Path" fill="#92CDFA" fill-rule="nonzero"></path>
            <path d="M263.033563,123.856423 C262.117422,126.72306 260.935304,129.900002 258.231208,131.111673 C257.876573,131.274214 258.009561,131.88005 258.39375,131.761838 C261.70368,130.757038 265.013611,128.806543 265.944529,124.757788 C266.193434,123.953947 265.74357,123.100528 264.939729,122.851623 C264.135888,122.602718 263.282468,123.052582 263.033563,123.856423 Z" id="Path" fill="#92CDFA" fill-rule="nonzero"></path>
            <path d="M271.603919,110.040418 C270.687778,112.094348 267.555165,112.50809 265.693329,111.843148 C263.831493,111.178207 263.181328,114.281267 264.910176,115.06442 C266.514746,115.787202 268.377881,115.636589 269.845519,114.665455 C271.092308,113.543107 271.959744,112.061237 272.327967,110.424606 C272.56439,109.892653 271.825566,109.538018 271.603919,110.040418 Z" id="Path" fill="#92CDFA" fill-rule="nonzero"></path>
            <path d="M259.664527,75.8033227 C257.507161,75.626005 255.231584,74.7837459 253.059442,75.0497224 C252.4009,75.1481643 251.91358,75.7137467 251.91358,76.3796053 C251.91358,77.0454639 252.4009,77.6110463 253.059442,77.7094882 C255.231584,77.9754647 257.492385,77.1479821 259.664527,76.9558879 C259.933463,76.8945966 260.124249,76.6554377 260.124249,76.3796053 C260.124249,76.1037729 259.933463,75.864614 259.664527,75.8033227 L259.664527,75.8033227 Z" id="Path" fill="#92CDFA" fill-rule="nonzero"></path>
            <path d="M263.077893,53.5795026 C262.590269,51.3630312 261.511586,48.3634065 259.383774,47.6689121 C258.438079,47.3438296 257.669702,48.7919243 258.408526,49.5603011 C259.14735,50.3286778 260.019162,50.6537603 260.713656,51.3334782 C261.47241,52.0446448 262.076082,52.9048772 262.486834,53.8602556 C262.649375,54.2592205 263.166551,53.9784674 263.077893,53.5795026 Z" id="Path" fill="#92CDFA" fill-rule="nonzero"></path>
            <path d="M287.532961,45.0978053 C285.730231,46.7675471 279.849193,51.45169 281.858794,54.6877383 C281.995681,54.9681143 282.309102,55.1156066 282.612394,55.0423737 C284.090042,54.584303 284.503783,52.692914 284.947077,51.2743723 C285.511194,49.1651428 286.518706,47.2004944 287.902373,45.5115466 C288.109243,45.2307935 287.769384,44.8613816 287.532961,45.0978053 Z" id="Path" fill="#92CDFA" fill-rule="nonzero"></path>
            <path d="M302.279884,67.4398372 C301.363742,68.1343316 300.905672,69.4789909 300.196401,70.3951325 C299.445196,71.5459727 298.432557,72.5029158 297.241105,73.1878865 C296.871694,73.3652042 296.989905,74.0301456 297.418423,73.8971573 C298.819595,73.572588 300.141195,72.9695767 301.304636,72.1239802 C302.577881,71.2379134 303.436531,69.8726063 303.683649,68.3412023 C303.698426,67.587602 302.870943,66.9817665 302.279884,67.4398372 Z" id="Path" fill="#92CDFA" fill-rule="nonzero"></path>
            <path d="M303.698426,53.2987495 C303.40756,51.8609591 302.733652,50.5284586 301.747931,49.4420893 C300.772683,48.5259477 298.792635,47.4324885 297.580964,48.4225124 C297.245855,48.6843201 297.030337,49.0700824 296.98307,49.4927022 C296.935804,49.9153221 297.060774,50.3391652 297.329764,50.6685368 C297.979929,51.5551253 299.354142,51.6142312 300.28506,51.9836432 C301.391932,52.2900514 302.406704,52.8633975 303.240355,53.653385 C303.350917,53.7055389 303.48139,53.6912581 303.578052,53.6164227 C303.674715,53.5415873 303.721222,53.4188505 303.698426,53.2987495 L303.698426,53.2987495 Z" id="Path" fill="#92CDFA" fill-rule="nonzero"></path>
            <path d="M299.620118,95.1605065 C299.394109,94.6937189 298.926872,94.3917242 298.408447,94.3773533 C297.533209,94.4498608 296.653473,94.4498608 295.778234,94.3773533 C295.408822,94.3773533 295.024634,94.3773533 294.684775,94.3773533 C294.127576,94.238319 293.639476,93.9024222 293.310563,93.4316588 C293.133245,93.2247881 292.808163,93.4316588 292.941151,93.7419648 C293.451892,94.8781633 294.168275,95.9101548 295.054187,96.7859189 C296.13402,97.5768554 297.513416,97.8375287 298.807412,97.4951897 C299.312682,97.3306632 299.690702,96.9075066 299.797436,96.386954 C299.894814,95.9703926 299.831494,95.5324288 299.620118,95.1605065 L299.620118,95.1605065 Z" id="Path" fill="#92CDFA" fill-rule="nonzero"></path>
            <path d="M297.758282,106.863476 C297.630861,106.265001 297.199053,105.777114 296.620493,105.577922 L296.280635,105.577922 C295.742313,105.443602 295.183013,105.70174 294.935975,106.198534 C294.167598,107.676182 295.054187,108.932182 295.497481,110.350724 C296.28459,112.090667 296.436238,114.051631 295.925999,115.891903 C295.925999,116.06922 296.118093,116.187432 296.191976,116.024891 C297.462753,112.96616 298.866518,110.247289 297.758282,106.863476 Z" id="Path" fill="#92CDFA" fill-rule="nonzero"></path>
            <path d="M293.399222,120.398728 C289.734656,120.590822 286.897572,123.457458 284.651548,126.486636 C284.370795,126.870824 284.814089,127.402778 285.153948,127.048142 C287.665949,124.432706 290.621244,124.1224 293.78341,123.649553 C295.423599,123.3688 295.054187,120.310069 293.399222,120.398728 Z" id="Path" fill="#92CDFA" fill-rule="nonzero"></path>
            <path d="M282.302088,134.465933 C280.602793,134.259062 280.129946,137.229134 281.814464,137.421228 C284.313836,137.45786 286.661653,138.626334 288.197902,140.598171 C288.449102,140.967583 288.892396,140.598171 288.715079,140.199206 C287.399972,137.303017 285.316489,134.835345 282.302088,134.465933 Z" id="Path" fill="#92CDFA" fill-rule="nonzero"></path>
            <path d="M259.058691,310.704964 C227.555244,273.453468 220.285218,262.046028 215.468086,254.554355 C214.507615,253.076707 213.60625,251.59906 212.60145,250.121412 L211.80352,248.924517 L211.522767,247.44687 C210.813496,243.752751 212.187709,239.334584 215.778392,230.217499 C217.25604,226.449497 219.369076,216.637917 218.364276,213.076786 L218.26084,193.867367 L228.412279,206.442149 C242.509038,223.361214 266.683353,256.534403 273.820391,267.61676 L274.042038,267.956619 L274.219356,268.326031 C274.854744,269.611584 276.022086,272.005373 274.573991,282.526224 C273.880952,287.799899 272.703714,292.998544 271.05719,298.056301 C270.360958,300.282973 269.866416,302.567755 269.579542,304.883033 C269.46133,305.695739 269.328342,306.508445 269.195354,307.306375 L267.052765,320.265344 L259.058691,310.704964 Z" id="Path" fill="#F8FAFB" fill-rule="nonzero"></path>
            <path d="M217.300369,224.986626 C220.386052,219.506471 223.805874,214.221292 227.540467,209.16102 C228.028091,208.496079 228.530491,207.831137 229.018115,207.166196 L228.382727,206.397819 L218.216511,193.823038 C218.216511,193.823038 218.290393,220.686672 217.300369,224.986626 Z" id="Path" fill="#E3E9ED" fill-rule="nonzero"></path>
            <path d="M263.373422,306.035598 C232.150728,269.094407 225.131902,258.115486 220.314771,250.54993 C219.324747,249.072282 218.393829,247.594635 217.359475,245.998775 C216.945734,243.856186 218.837123,236.571383 221.230912,232.93637 C224.984137,227.02578 223.728137,206.974102 221.940183,200.60544 C236.229035,219.194247 262.560716,256.578732 269.224907,266.848383 C270.25926,268.976196 268.293989,287.830979 265.560341,295.49997 C264.527723,298.941909 263.796,302.467031 263.373422,306.035598 L263.373422,306.035598 Z" id="Path" fill="#C7EBFF" fill-rule="nonzero"></path>
            <path d="M223.728137,214.06681 C224.460604,213.005656 225.291787,212.016152 226.210585,211.111515 C226.506114,210.830762 226.81642,210.550009 227.097173,210.239703 L227.097173,210.239703 L227.496138,209.692973 C227.70526,209.417273 227.932325,209.155655 228.175856,208.90982 C225.929831,205.880642 223.742913,202.99923 221.91063,200.590664 C222.917631,205.084994 223.472052,209.668868 223.565595,214.273681 C223.639478,214.258904 223.683807,214.140693 223.728137,214.06681 Z" id="Path" fill="#92CDFA" fill-rule="nonzero"></path>
            <path d="M269.165801,266.848383 L269.018036,266.626736 L268.752059,266.552854 C267.516804,264.215013 265.599676,262.308192 263.25521,261.085557 C262.888782,260.918463 262.50796,260.784928 262.117422,260.686593 C261.888236,259.577727 261.597177,258.482556 261.24561,257.406215 C259.584414,252.418042 256.355308,248.100474 252.039865,245.09741 L250.695206,243.619763 C246.646451,239.305032 242.789791,235.492701 240.588096,229.567334 C240.555171,229.481739 240.472934,229.42526 240.381225,229.42526 C240.289517,229.42526 240.207279,229.481739 240.174355,229.567334 C240.067339,229.573705 239.968369,229.626252 239.903142,229.711331 C239.837915,229.796409 239.812865,229.905628 239.834496,230.010628 C240.159578,233.542206 240.484661,237.073784 240.972284,240.561032 C239.884656,241.499501 238.943347,242.595205 238.17953,243.811857 C237.435344,244.912545 236.825193,246.098123 236.362024,247.343435 C235.948282,248.481223 235.445882,251.998025 234.337646,253.254025 C231.382351,253.047154 228.574821,252.89939 225.693408,252.722072 C225.577406,252.712433 225.463288,252.755906 225.383102,252.840284 C224.939808,252.559531 224.496513,253.194919 224.880702,253.60866 C227.525691,256.563956 229.904704,259.696569 232.446257,262.71097 C234.337646,266.227771 236.214259,269.715019 238.356848,273.054503 C240.499437,276.393987 242.789791,279.7778 246.454357,280.649612 C247.242534,280.837978 248.053605,280.912616 248.862923,280.871259 C249.450169,282.978003 250.155632,285.049993 250.975959,287.077379 C252.597027,291.234694 254.726237,295.17547 257.315067,298.809901 L263.358646,305.991268 C263.770932,302.448937 264.487781,298.948734 265.501235,295.529523 C268.234883,287.830979 270.200154,268.931866 269.165801,266.848383 Z" id="Path" fill="#92CDFA" fill-rule="nonzero"></path>
            <path d="M234.544517,260.346734 C234.32287,259.903439 234.086446,259.474921 233.835246,259.06118 C232.561139,257.763056 231.120126,256.64006 229.550068,255.721697 C228.072421,254.731673 226.594773,253.682543 225.117125,252.766401 C224.951982,252.819659 224.826011,252.954364 224.783927,253.122702 C224.741842,253.291039 224.789603,253.469177 224.910255,253.593884 C227.555244,256.549179 229.934257,259.681792 232.47581,262.696193 C233.352548,264.321606 234.239137,265.937167 235.135576,267.542877 C235.061694,266.922265 235.002588,266.331206 234.958258,265.828806 C234.810494,264.144288 234.647952,262.252899 234.544517,260.346734 Z" id="Path" fill="#5EB2FC" fill-rule="nonzero"></path>
            <path d="M243.33652,239.748326 L243.898027,240.265502 C244.053961,240.401735 244.216712,240.529963 244.38565,240.649691 C246.025999,240.914425 247.628479,241.37582 249.158452,242.023903 C245.649933,238.665761 242.838024,234.648748 240.883625,230.202722 C241.094286,233.136848 241.783083,236.016819 242.922779,238.728749 C243.026214,239.098161 243.173979,239.378914 243.33652,239.748326 Z" id="Path" fill="#5EB2FC" fill-rule="nonzero"></path>
            <path d="M251.6409,246.560281 C249.836968,246.206459 248.097829,245.578575 246.48391,244.698445 C246.956757,245.998775 247.370498,247.328658 247.769463,248.658541 C247.976334,249.367812 248.227534,250.136189 248.449181,250.80113 C249.85334,251.095551 251.284921,251.239205 252.719583,251.229648 L253.000336,251.229648 C252.542265,249.944094 252.172853,248.628988 251.818218,247.284329 L251.6409,246.560281 Z" id="Path" fill="#F8FAFB" fill-rule="nonzero"></path>
            <path d="M242.065743,267.36556 C244.311768,266.523301 246.498686,265.621936 248.83337,264.883112 C248.759487,264.188617 248.685605,263.494123 248.611722,262.799629 C248.404852,260.982122 248.094546,259.194168 247.813793,257.406215 L247.621699,257.095909 C244.979419,256.265748 242.388946,255.278901 239.864049,254.140614 C240.307343,257.775627 240.898402,261.336757 241.592896,264.942218 C241.740661,265.7697 241.858873,266.56763 242.065743,267.36556 Z" id="Path" fill="#F8FAFB" fill-rule="nonzero"></path>
            <path d="M248.03544,261.676616 C247.979498,261.341858 247.885297,261.014632 247.754687,260.701369 C247.096128,259.152703 245.956229,257.857364 244.503862,257.00725 C242.804567,256.046779 241.253037,258.233697 241.548567,259.962545 C241.917979,262.267675 243.957132,265.104759 246.277039,264.691018 C247.009894,264.528162 247.610502,264.005411 247.872899,263.302029 C248.067157,262.783497 248.123171,262.223347 248.03544,261.676616 Z" id="Path" fill="#5EB2FC" fill-rule="nonzero"></path>
            <path d="M251.921653,249.559906 C251.731291,248.025957 250.707458,246.723415 249.261887,246.176093 C248.301416,246.176093 247.78424,247.269552 248.153652,248.215247 C248.294354,248.557917 248.494444,248.873059 248.744711,249.146165 C249.23534,249.807582 249.900515,250.319255 250.665653,250.623812 C250.911104,250.706475 251.180254,250.67956 251.404476,250.54993 C251.742728,250.337276 251.940328,249.959013 251.921653,249.559906 Z" id="Path" fill="#5EB2FC" fill-rule="nonzero"></path>
            <path d="M250.251911,267.454219 C255.468007,268.798878 259.029138,262.356334 256.251161,257.214121 C259.679303,258.484898 260.920527,254.672567 257.315067,251.081883" id="Path" stroke="#5EB2FC" stroke-width="0.59" stroke-linecap="round" stroke-linejoin="round"></path>
            <path d="M256.812667,257.00725 C256.517137,256.268426 256.059066,255.618261 255.689654,254.923767 C255.452056,254.283769 255.02402,253.731964 254.463207,253.342684 C253.857371,253.047154 253.325418,253.534778 253.458407,254.258825 C253.258245,254.24797 253.060312,254.305266 252.8969,254.421367 C252.5596,254.737075 252.368181,255.178426 252.368181,255.640426 C252.368181,256.102426 252.5596,256.543777 252.8969,256.859485 C253.333722,257.17173 253.841667,257.369828 254.374548,257.435768 C254.950831,257.583533 255.527113,257.716521 256.118172,257.80518 C256.709231,257.893839 257.04909,257.598309 256.812667,257.00725 Z" id="Path" fill="#5EB2FC" fill-rule="nonzero"></path>
            <path d="M232.992987,237.797831 C233.288517,235.862113 232.623575,233.158017 230.983386,232.212323 C230.644349,231.790403 230.263108,231.404211 229.845598,231.059758 C229.601305,230.844067 229.27712,230.741876 228.953296,230.778482 C228.629473,230.815088 228.336282,230.98707 228.146303,231.251852 C227.259714,232.241876 227.968985,233.778629 228.338397,234.886865 C228.672712,235.798931 229.088115,236.679192 229.579621,237.517078 C229.612218,237.79446 229.676675,238.067161 229.771715,238.329784 C230.034887,239.101109 230.697665,239.667586 231.500563,239.807432 C231.855216,239.857452 232.214797,239.758975 232.494475,239.535232 C232.774153,239.31149 232.94916,238.982296 232.978211,238.625314 C232.998593,238.349979 233.003526,238.073718 232.992987,237.797831 L232.992987,237.797831 Z" id="Path" fill="#F8FAFB" fill-rule="nonzero"></path>
            <path d="M232.697458,227.971474 C232.692424,227.118642 232.53737,226.273346 232.239387,225.47425 C232.121175,225.17872 231.736987,225.282156 231.751763,225.607238 C231.751763,226.405168 231.884751,227.203098 231.884751,228.015804 C231.785115,228.677013 231.785115,229.349419 231.884751,230.010628 C231.920152,230.122192 232.015316,230.204344 232.130853,230.22308 C232.24639,230.241816 232.362639,230.193947 232.431481,230.099287 C232.72271,229.430295 232.81505,228.691569 232.697458,227.971474 L232.697458,227.971474 Z" id="Path" fill="#F8FAFB" fill-rule="nonzero"></path>
            <path d="M229.934257,228.015804 C229.808068,227.39109 229.645245,226.774338 229.446633,226.168744 C229.357974,225.858438 228.959009,226.006203 228.973786,226.301732 C228.992931,226.910192 229.047202,227.517038 229.136327,228.119239 C229.154804,228.261775 229.247919,228.383627 229.380598,228.438894 C229.513277,228.494161 229.665361,228.474446 229.779563,228.387176 C229.893765,228.299907 229.952733,228.15834 229.934257,228.015804 L229.934257,228.015804 Z" id="Path" fill="#F8FAFB" fill-rule="nonzero"></path>
            <path d="M227.82122,228.665969 C227.348373,227.853262 226.786867,227.114439 226.343573,226.301732 C226.195808,226.065309 225.900279,226.301732 226.033267,226.567709 C226.461785,227.424745 226.801644,228.32611 227.244938,229.183145 C227.315981,229.308985 227.456275,229.379132 227.599573,229.360463 C227.705623,229.352894 227.800415,229.291559 227.850773,229.197922 C227.943493,229.02955 227.93202,228.823033 227.82122,228.665969 Z" id="Path" fill="#F8FAFB" fill-rule="nonzero"></path>
            <path d="M229.062444,243.486774 C229.062444,242.644515 229.298868,241.817032 229.298868,240.98955 C229.298868,240.89162 229.21948,240.812232 229.12155,240.812232 C229.02362,240.812232 228.944233,240.89162 228.944233,240.98955 C228.454249,242.910704 228.500245,244.929414 229.077221,246.826258 C229.077221,246.974023 229.343197,246.914917 229.313645,246.826258 C229.101831,245.726452 229.017541,244.605891 229.062444,243.486774 L229.062444,243.486774 Z" id="Path" fill="#F8FAFB" fill-rule="nonzero"></path>
            <path d="M227.082397,237.753502 C226.058362,238.694512 225.316477,239.901994 224.939808,241.24075 C224.836372,241.506726 225.191008,241.669268 225.294443,241.418068 C225.588714,240.748998 225.939705,240.106339 226.343573,239.497126 C226.7199,239.030762 227.060715,238.536827 227.36315,238.019478 C227.396208,237.940204 227.376843,237.848749 227.31449,237.789678 C227.252137,237.730607 227.159769,237.716209 227.082397,237.753502 Z" id="Path" fill="#F8FAFB" fill-rule="nonzero"></path>
            <path d="M226.757314,234.945971 C226.67477,234.810006 226.505964,234.753738 226.358349,234.812983 C225.509479,235.119004 224.80061,235.722856 224.363525,236.512278 C224.274866,236.674819 224.437407,236.940795 224.599949,236.778254 C225.15391,236.194372 225.844559,235.757639 226.609549,235.507477 C226.727201,235.454017 226.806459,235.340791 226.81642,235.211948 C226.824152,235.119346 226.803538,235.026583 226.757314,234.945971 Z" id="Path" fill="#F8FAFB" fill-rule="nonzero"></path>
            <path d="M226.757314,232.419194 C226.715907,232.282491 226.602078,232.180046 226.461785,232.153217 C225.870726,232.049782 225.309219,232.020229 224.71816,231.961123 C224.526066,231.961123 224.407854,232.286205 224.614725,232.360088 C225.191008,232.581735 225.752514,232.818158 226.343573,232.9807 C226.476111,233.002976 226.609327,232.945056 226.683432,232.832935 C226.784593,232.720224 226.813213,232.559952 226.757314,232.419194 L226.757314,232.419194 Z" id="Path" fill="#F8FAFB" fill-rule="nonzero"></path>
            <path d="M233.451058,245.511151 C233.167526,244.766886 232.993324,243.985466 232.933881,243.191245 C233.001339,242.540284 232.971458,241.882906 232.845222,241.24075 C232.822414,241.196495 232.776797,241.168687 232.727011,241.168687 C232.677224,241.168687 232.631607,241.196495 232.608799,241.24075 C232.306289,241.881397 232.233249,242.606575 232.401928,243.29468 C232.504974,244.130415 232.728963,244.946731 233.066869,245.718022 C233.103823,245.786651 233.174583,245.830352 233.252494,245.832663 C233.330405,245.834974 233.403631,245.795545 233.444588,245.729228 C233.485546,245.66291 233.488012,245.57978 233.451058,245.511151 L233.451058,245.511151 Z" id="Path" fill="#F8FAFB" fill-rule="nonzero"></path>
            <path d="M236.716659,243.220798 C236.391577,242.674068 236.051718,242.156891 235.682306,241.654491 C235.312894,241.152091 235.1208,240.634914 234.692282,240.44282 C234.633621,240.421344 234.567988,240.432318 234.519505,240.47171 C234.471023,240.511103 234.446845,240.5731 234.455858,240.634914 C234.455858,241.181644 235.046917,241.639715 235.342447,242.112562 C235.637976,242.585409 236.066494,243.087809 236.465459,243.59021 C236.613224,243.649316 236.805318,243.398115 236.716659,243.220798 Z" id="Path" fill="#F8FAFB" fill-rule="nonzero"></path>
            <path d="M238.061318,237.191995 C237.056518,237.191995 236.066494,237.33976 235.106023,237.443196 C234.647952,237.443196 234.736611,238.315008 235.194682,238.241125 C236.184706,238.078584 237.17473,237.930819 238.149977,237.694396 C238.288711,237.669913 238.38133,237.5376 238.356848,237.398866 C238.332365,237.260132 238.200052,237.167513 238.061318,237.191995 L238.061318,237.191995 Z" id="Path" fill="#F8FAFB" fill-rule="nonzero"></path>
            <path d="M236.908753,234.576559 C236.11301,233.967449 235.03809,233.869729 234.145552,234.325359 C234.030225,234.42362 233.98659,234.58234 234.035479,234.725747 C234.084368,234.869154 234.215867,234.968169 234.367199,234.975524 C234.736611,234.975524 235.091247,234.753877 235.460659,234.709547 C235.905624,234.667935 236.354321,234.723392 236.775765,234.872089 C236.967859,234.945971 237.086071,234.694771 236.908753,234.576559 Z" id="Path" fill="#F8FAFB" fill-rule="nonzero"></path>
            <path d="M236.554118,230.232275 C235.318937,230.066151 234.119976,230.72558 233.598823,231.857688 C233.244187,232.493076 234.056893,233.054582 234.367199,232.389641 C234.833743,231.556904 235.635695,230.964859 236.568894,230.764228 C236.864424,230.690346 236.760989,230.291381 236.554118,230.232275 Z" id="Path" fill="#F8FAFB" fill-rule="nonzero"></path>
            <path d="M90.3704391,121.462634 C86.735426,115.419055 79.007329,103.730863 70.8507141,91.3925051 C62.2360285,78.3153237 51.5526363,62.2089647 48.287035,56.4313625 L46.3069872,52.9293376 L48.1835997,49.3534304 C50.8017155,44.7596359 53.8441692,40.4210475 57.2711325,36.3944608 C67.2895834,23.9969973 78.9038936,12.9294166 84.2677545,10.6390628 L87.2230497,9.38306237 L89.8089331,11.4369926 C93.6508169,14.4957231 103.506726,26.0952569 116.849884,45.1125817 C130.66589,64.8096245 137.714269,77.2809703 139.561328,82.0537721 L140.950317,85.6149029 L138.92594,88.658857 C138.280364,89.681099 137.579919,90.6676411 136.82768,91.6141522 C130.260531,99.1736248 122.998029,106.099717 115.135813,112.301219 C105.265127,120.250963 99.7830545,123.102823 97.4040418,124.1224 L92.971099,125.954683 L90.3704391,121.462634 Z" id="Path" fill="#F8FAFB" fill-rule="nonzero"></path>
            <path d="M120.691768,50.7276427 C109.19567,51.8211019 97.4188183,53.9193615 91.3161336,62.9182355 C86.7502025,69.6415322 84.0165544,77.3991822 79.6574939,84.2406906 C77.4853519,87.6540566 75.2245511,91.1560815 72.9046443,94.5842239 C80.2928824,105.740463 87.0161791,115.965785 90.3408862,121.492187 L92.971099,125.92513 L97.4040418,124.092847 C99.7978309,123.102823 105.265127,120.236187 115.135813,112.271666 C122.998029,106.070164 130.260531,99.1440718 136.82768,91.5845993 C137.579019,90.6476535 138.279449,89.670997 138.92594,88.658857 L140.950317,85.5114676 L139.561328,81.9503368 C137.891586,77.7538176 131.980996,67.1738607 120.691768,50.7276427 Z" id="Path" fill="#E3E9ED" fill-rule="nonzero"></path>
            <path d="M132.409514,87.0038917 C126.141171,94.1984234 119.215491,100.79266 111.722447,106.700934 C102.959997,113.778866 97.7439008,116.645503 95.3205587,117.66508 C91.6116631,111.503289 83.7505778,99.7264376 75.6382924,87.3585271 C67.526007,74.9906165 56.4288734,58.3818573 53.3110369,52.7963493 C55.7381568,48.6127558 58.5373025,44.6563662 61.6745224,40.9751684 C72.4317971,27.6763399 82.7901069,18.5149246 86.3660141,16.9929476 C89.4986271,19.4753956 98.8225835,30.2917761 112.150965,49.3386539 C125.183817,67.9126845 132.409514,80.5022422 134.094032,84.8021967 C133.57118,85.564878 133.00891,86.2997743 132.409514,87.0038917 Z" id="Path" fill="#C7EBFF" fill-rule="nonzero"></path>
            <path d="M101.319808,42.0538512 C98.9626035,40.2622907 95.6337653,40.536765 93.6018415,42.6902244 C91.5699177,44.8436839 91.4890693,48.18284 93.4143932,50.4321132 C93.5195432,50.7227632 93.6480247,51.0044342 93.7985816,51.2743723 C94.5842693,52.8262528 96.1128444,53.8649917 97.8449887,54.0240968 C99.577133,54.1832019 101.269359,53.4403078 102.324608,52.0575255 C104.713202,48.9892102 104.270913,44.5858304 101.319808,42.0538512 L101.319808,42.0538512 Z" id="Path" fill="#F8FAFB" fill-rule="nonzero"></path>
            <path d="M81.9478477,61.1007289 C82.7753304,57.8499042 83.2038482,54.1262322 81.800083,51.0675016 C78.7117995,44.2998755 68.6342427,44.2555461 64.0683116,49.0874538 C58.8817684,54.6729618 63.0635112,64.6914127 68.3239367,68.1343316 C73.9537741,71.8432271 80.5884119,68.9765907 82.8787657,62.2237411 C82.9653416,61.9427418 82.9044411,61.6370327 82.7167917,61.410662 C82.5291423,61.1842913 82.2400275,61.0677597 81.9478477,61.1007289 L81.9478477,61.1007289 Z" id="Path" fill="#5EB2FC" fill-rule="nonzero"></path>
            <path d="M97.2119476,48.1713123 C92.4631051,45.4257978 86.6201132,45.3808949 81.8296359,48.0531005 C77.1307165,49.9444894 73.702574,54.8207266 72.9637502,61.0563995 C71.9293969,69.9222852 76.835187,78.1823354 84.3416369,80.8125482 C92.2322751,83.5609727 101.039055,78.8177239 104.083009,70.1439324 C106.964422,62.0611999 103.920468,52.5155963 97.2119476,48.1713123 Z" id="Path" fill="#92CDFA" fill-rule="nonzero"></path>
            <path d="M89.3508623,77.2957468 C89.1363089,76.0809633 88.5533839,74.9615409 87.6811205,74.0892515 C86.5091338,72.8843129 84.8423717,72.294683 83.1734024,72.4946116 C81.5044331,72.6945402 80.0240975,73.6611662 79.1698702,75.1088284 C77.4816496,77.9632975 77.8278935,81.5809492 80.0269058,84.0633729 C80.7244229,85.0020339 81.7369285,85.6578017 82.8787657,85.9104324 C86.4103435,86.6049268 89.7202742,83.0881255 89.6463918,79.1132534 C89.6336169,78.4965553 89.5341319,77.8847222 89.3508623,77.2957468 Z" id="Path" fill="#F8FAFB" fill-rule="nonzero"></path>
            <path d="M109.520752,67.4841667 C108.003112,65.3958474 105.391654,64.4061792 102.871144,64.9641547 C100.350634,65.5221302 98.4008778,67.5215329 97.906442,70.0552735 C96.6208886,76.1875111 103.624938,80.6500069 108.116987,77.7538176 C109.236387,77.0091158 110.033291,75.8691749 110.348235,74.5620987 L110.348235,74.5620987 C111.33589,72.2213778 111.021701,69.5339443 109.520752,67.4841667 L109.520752,67.4841667 Z" id="Path" fill="#5EB2FC" fill-rule="nonzero"></path>
            <path d="M83.7505778,33.2322949 C82.5280772,33.3849306 81.4630996,34.1392898 80.9134944,35.2418957 C80.4812805,35.9589827 80.2609844,36.7838125 80.2781059,37.6209083 C80.2151902,38.7069032 80.6479884,39.7628709 81.4549828,40.492325 C82.2619772,41.221779 83.356153,41.5460653 84.4302957,41.3741333 C85.0610867,41.6532862 85.7906085,41.5920286 86.3660141,41.211592 C87.5428747,40.4288685 88.2305695,39.0926158 88.1835207,37.6800142 C88.2431471,36.4857221 87.7958017,35.3217587 86.9516658,34.4748091 C86.10753,33.6278595 84.9450617,33.1766431 83.7505778,33.2322949 Z" id="Path" fill="#92CDFA" fill-rule="nonzero"></path>
            <path d="M103.610162,86.1320796 C103.596854,84.6822341 102.665214,83.4004874 101.290255,82.9403607 C99.6653451,82.6932063 98.1295676,83.7559384 97.7882302,85.3637028 C97.2483054,87.0738251 98.1363193,88.9081896 99.8126074,89.5454456 C100.450721,89.7859115 101.154542,89.7859115 101.792655,89.5454456 C102.499501,89.2859236 103.045549,88.7125734 103.270303,87.9939156 C103.556052,87.4174899 103.673827,86.7722872 103.610162,86.1320796 L103.610162,86.1320796 Z" id="Path" fill="#92CDFA" fill-rule="nonzero"></path>
            <path d="M95.8081824,99.4456846 C95.6267776,99.0746329 95.2983573,98.7964391 94.9025231,98.678531 C94.5066888,98.5606229 94.0795732,98.6137635 93.7246992,98.8250726 C93.2972029,99.1145068 93.0379377,99.5944231 93.0302049,100.110626 C93.0376618,100.473417 93.2053891,100.814282 93.4882756,101.041544 C93.589406,101.408916 93.8614189,101.705015 94.2189126,101.836877 C94.5764063,101.96874 94.9755419,101.920195 95.2910057,101.706485 C96.0063702,101.189487 96.2276266,100.22228 95.8081824,99.4456846 Z" id="Path" fill="#F8FAFB" fill-rule="nonzero"></path>
            <path d="M118.50485,84.6396555 C118.323449,84.0888613 117.904668,83.6484072 117.36372,83.4394694 C116.822771,83.2305316 116.216645,83.2751219 115.712096,83.5609727 C114.692059,84.2538435 114.354967,85.6022118 114.928943,86.6935857 C115.051558,86.9485661 115.331107,87.0883403 115.60866,87.0334446 C115.998613,87.4779701 116.593093,87.6854775 117.174967,87.5801742 C118.350817,87.131803 118.944669,85.8187313 118.50485,84.6396555 Z" id="Path" fill="#5EB2FC" fill-rule="nonzero"></path>
            <path d="M181.275321,294.480394 C167.799174,280.930365 149.358132,262.371111 133.650738,254.968096 C124.26124,250.634176 115.115727,245.790113 106.255151,240.457597 L97.2267241,234.945971 L105.29468,227.794157 L108.249975,225.208273 C122.701369,212.589163 149.624109,189.109342 158.578653,149.670927 L161.992019,134.68758 L170.311175,146.937279 C179.428261,160.324766 203.085399,180.273009 218.216511,189.138895 L224.925031,193.084214 L220.669406,200.176923 C210.433416,216.574155 203.454704,234.791051 200.115328,253.830308 C196.864503,271.369985 195.091326,283.38326 194.544596,291.539875 L193.525019,306.744869 L181.275321,294.480394 Z" id="Path" fill="#F8FAFB" fill-rule="nonzero"></path>
            <path d="M141.497047,194.14812 C145.720926,193.898968 149.916967,193.300945 154.042275,192.360167 C161.430513,190.956401 168.818751,189.907272 176.11833,188.015883 C185.353628,185.622094 194.455937,182.873669 202.317023,178.17475 C189.786571,168.496158 176.605954,156.143024 170.311175,146.89295 L161.992019,134.643251 L158.578653,149.626598 C154.849737,165.656996 147.857951,180.747182 138.039351,193.956026 C139.17714,194.133344 140.329705,194.177673 141.497047,194.14812 Z" id="Path" fill="#E3E9ED" fill-rule="nonzero"></path>
            <path d="M188.397582,291.968393 L185.205863,288.761897 C171.419411,274.901563 152.535074,255.899014 135.911539,248.067482 C126.709545,243.82201 117.74655,239.076604 109.062681,233.852512 L108.043105,233.2319 L108.974023,232.419194 L111.929318,229.862863 C126.942218,216.756129 154.899311,192.360167 164.400585,150.675727 L164.75522,149.124197 L165.597479,150.365421 C175.468165,164.890698 199.775469,185.267458 215.423757,194.473203 L216.177357,194.916497 L215.674957,195.74398 C204.980913,212.872018 197.691017,231.902008 194.204737,251.791154 C190.894807,269.626361 189.092076,281.890836 188.53057,290.372533 L188.397582,291.968393 Z" id="Path" fill="#92CDFA" fill-rule="nonzero"></path>
            <path d="M171.448964,188.621718 C177.064025,187.868118 182.383556,187.4396 187.703088,185.311788 C190.658383,184.100117 193.451137,182.459928 196.33255,181.070939 C184.201063,171.4219 171.907035,159.689378 165.567926,150.350645 L164.725667,149.109421 L164.371032,150.660951 C160.830371,166.07557 154.413538,180.683892 145.457142,193.719603 C154.323028,193.571838 162.70129,189.803836 171.448964,188.621718 Z" id="Path" fill="#5EB2FC" fill-rule="nonzero"></path>
            <path d="M208.95166,190.365342 C205.109777,189.656072 202.715987,193.320638 196.022244,191.473578 C190.111653,189.78906 178.645108,187.217953 172.76407,189.020683 C166.469291,190.956401 159.125383,192.626143 153.924063,197.192074 C148.456767,201.994429 143.876059,214.170246 144.88086,221.780131 C147.836155,244.506351 161.622607,258.514451 170.20774,274.000198 C175.571601,279.083305 180.669485,284.195966 185.191087,288.776674 L188.382806,291.983169 L188.486241,290.372533 C189.047747,281.876059 190.865254,269.685467 194.160408,251.791154 C197.646687,231.902008 204.936584,212.872018 215.630628,195.74398 L216.133028,194.916497 L215.379428,194.473203 C213.384603,193.261532 211.212461,191.887319 208.95166,190.365342 Z" id="Path" fill="#C7EBFF" fill-rule="nonzero"></path>
            <path d="M202.775093,186.006282 C202.509117,186.006282 182.088027,188.961577 177.049248,189.907272 C177.049248,196.837439 176.443413,201.580688 177.374331,208.40742 C177.847178,211.894668 179.605579,217.627941 177.876731,220.952648 C176.147883,224.277355 170.680587,225.267379 167.740068,226.257403 C161.563501,228.340886 155.342605,229.803757 149.077379,231.399617 C148.564221,237.894495 149.062709,244.429671 150.555027,250.771577 C151.057427,253.313131 151.722368,255.884238 152.34298,258.470121 C164.164161,267.528101 175.86713,279.334505 185.264969,288.776674 L188.456688,291.983169 L188.560123,290.372533 C189.121629,281.876059 190.939136,269.685467 194.23429,251.791154 C197.72057,231.902008 205.010466,212.872018 215.70451,195.74398 L216.20691,194.916497 L215.45331,194.473203 C211.087112,191.866576 206.855628,189.040655 202.775093,186.006282 L202.775093,186.006282 Z" id="Path" fill="#5EB2FC" fill-rule="nonzero"></path>
            <path d="M211.55232,192.09419 C209.734814,193.128543 207.932084,194.222003 206.173683,195.359791 C197.629863,200.942234 190.538509,208.47933 185.486616,217.347188 C175.512495,234.103712 168.257245,253.963296 170.266846,274.07408 C175.61593,279.142411 180.610379,284.225519 185.191087,288.761897 L188.382806,291.968393 L188.486241,290.357757 C189.047747,281.861283 190.865254,269.67069 194.160408,251.776377 C197.646687,231.887232 204.936584,212.857241 215.630628,195.729203 L216.133028,194.901721 L215.379428,194.458426 C214.167756,193.734379 212.882203,192.936449 211.55232,192.09419 Z" id="Path" fill="#2C8CF4" fill-rule="nonzero"></path>
            <path d="M166.690939,201.255605 L166.498844,201.093064 C165.680165,199.460835 164.127735,198.320799 162.325294,198.028195 C160.522854,197.735591 158.689509,198.325988 157.396535,199.615417 C155.133305,201.765894 154.167939,204.948233 154.854981,207.993679 C154.656152,209.111982 154.877149,210.264325 155.475593,211.229727 C155.890817,211.954759 156.576108,212.485993 157.381759,212.707374 C158.269438,213.379042 159.357081,213.732916 160.470042,213.712175 C162.359612,214.108326 164.32356,213.556655 165.730468,212.234527 C168.449339,209.678197 169.646234,204.151795 166.690939,201.255605 Z" id="Path" fill="#F8FAFB" fill-rule="nonzero"></path>
            <path d="M149.432014,219.667095 C148.703012,218.219718 147.033233,217.513032 145.486695,217.997353 C143.291296,218.620676 141.435171,220.093875 140.329705,222.090437 C139.502222,223.568084 139.901187,223.287331 138.999822,222.090437 C138.478698,221.412616 137.726721,220.949861 136.886786,220.790107 C132.793702,219.977401 131.271725,224.100038 131.434266,227.897592 C129.837061,227.800637 128.26683,228.342623 127.069491,229.404153 C125.872152,230.465682 125.145937,231.959666 125.050829,233.556982 C124.252899,239.467573 128.981371,243.353786 133.51775,244.521128 C134.056599,244.656819 134.612633,244.372483 134.818079,243.856186 C134.818079,244.491575 135.57168,244.84621 135.896762,244.225598 C137.536951,241.078209 138.704293,237.650066 140.43314,234.53223 C142.262297,231.218345 144.410116,228.090646 146.846131,225.193497 C148.043026,223.819284 150.333379,221.987001 149.432014,219.667095 Z" id="Path" fill="#F8FAFB" fill-rule="nonzero"></path>
            <path d="M180.861579,168.06764 C179.029296,165.496533 175.778471,163.398273 173.030047,165.76251 C171.900796,166.738189 171.377093,168.241725 171.655835,169.707829 C169.704748,170.128877 168.109178,171.527172 167.435756,173.406141 C166.762334,175.28511 167.106451,177.378588 168.345904,178.943126 C167.080567,180.33957 166.316311,182.117636 166.173762,183.996681 C166.025997,186.242706 167.178562,188.769483 169.498469,188.296636 C172.26167,187.73513 173.842753,182.962328 175.157859,180.671974 C176.339977,178.603267 177.51717,176.529635 178.689437,174.451078 C179.631175,173.182555 180.259074,171.709018 180.52172,170.151123 C180.846455,169.922488 181.065484,169.572759 181.129422,169.180791 C181.19336,168.788824 181.096823,168.387619 180.861579,168.06764 L180.861579,168.06764 Z" id="Path" fill="#C7EBFF" fill-rule="nonzero"></path>
            <g id="Group-11" transform="translate(251.485787, 150.383951)">
                <path d="M62.0907528,122.467434 C56.0915035,118.581221 44.1964402,107.395429 30.2474467,92.5746232 C15.5596294,76.9411114 4.7136959,63.7161652 1.58108295,58.7364928 L-7.10542736e-15,56.2097153 L0.650164951,53.2544201 C1.77317714,48.1269829 5.95491989,38.1233085 11.8507339,26.5089982 C15.5887018,18.9766794 19.7474624,11.6606155 24.3073033,4.59548409 L27.4103633,-3.05533376e-13 L31.8433061,2.76320104 C37.9607673,6.53120247 51.0527252,16.0620296 66.2724956,28.9618933 C81.4922661,41.861757 98.6329784,57.7907983 101.736038,64.8539539 L101.987238,65.41546 L102.135003,66.0212955 C103.612651,72.0648743 98.7659667,83.8712787 88.6736335,98.3817783 C81.0194188,109.390253 72.862804,118.374351 68.5332965,122.02414 L65.385907,124.698682 L62.0907528,122.467434 Z" id="Path" fill="#F8FAFB" fill-rule="nonzero"></path>
                <path d="M65.0460481,116.61595 C60.9381877,113.941408 50.6980897,105.075522 34.3257541,87.6540566 C19.3276308,71.6806859 9.20574465,59.1354576 6.42776713,54.8207266 C7.13703799,51.5403489 10.2548745,43.1473104 17.0225005,29.8189289 C20.6331377,22.5415445 24.6487846,15.47223 29.0505521,8.64423856 C34.7986014,12.1905928 47.4324885,21.411114 62.7556943,34.3257541 C83.4427609,51.761996 94.7319887,63.8787065 96.4756129,67.8240256 C96.8893542,69.4642145 95.5003655,77.6947117 84.0633729,94.1557061 C78.5626557,102.313834 72.18558,109.845423 65.0460481,116.61595 L65.0460481,116.61595 Z" id="Path" fill="#C7EBFF" fill-rule="nonzero"></path>
                <path d="M65.8292013,45.7922996 C62.7261413,49.90016 59.3718812,53.7715968 55.9437388,57.6134806 C53.1214318,60.731317 48.9101361,63.8048241 46.9891942,67.7058138 C46.5606764,68.5628494 47.2551708,69.4937674 48.0826534,69.1834614 C51.9984196,67.4398372 55.4708915,62.2237411 58.2340926,58.8399281 C61.3223761,54.9980443 64.144683,50.9049604 66.8487782,46.7527706 C67.1140048,46.4712222 67.1007735,46.0279735 66.8192251,45.7627468 C66.5376768,45.4975201 66.0944281,45.5107513 65.8292013,45.7922996 L65.8292013,45.7922996 Z" id="Path" fill="#5EB2FC" fill-rule="nonzero"></path>
                <path d="M70.7645444,57.997669 C69.2868967,61.1598349 67.6762608,64.3515537 66.3316015,67.6171549 C65.1642599,70.4542384 63.5684005,73.7789455 63.3763063,76.9263349 C63.3763063,77.4730645 63.9673653,77.8129235 64.2776713,77.3252998 C65.9474131,74.7541929 66.7010134,71.2078386 67.7353667,68.2525434 C68.9174848,64.8982833 70.1143794,61.5883527 71.4885917,58.3227514 C71.603464,58.1887895 71.6207251,57.9967123 71.5315773,57.8444161 C71.4424296,57.69212 71.2664973,57.61313 71.0934481,57.6477051 C70.920399,57.6822802 70.7883265,57.8228094 70.7645444,57.997669 Z" id="Path" fill="#5EB2FC" fill-rule="nonzero"></path>
                <path d="M74.1779104,77.9163588 C70.0257206,74.9610636 65.725766,71.6954624 61.7656704,68.4741906 C53.2987495,61.6179056 44.8761581,53.5351731 38.9212382,43.9304636 C36.9559669,40.7682977 35.3010016,37.4435906 32.2274945,35.2862251 C31.8876356,35.0498015 31.4591178,35.5374252 31.7546473,35.8920606 C38.5961557,44.2850991 37.5913554,55.825527 40.4432153,66.0951779 C43.2950752,76.3648288 49.9740424,81.7434662 58.2636455,86.1320796 C62.7852472,88.5258687 77.0740997,95.8106715 79.1132534,86.1320796 C80.0441714,81.6400308 77.1479821,79.9850655 74.1779104,77.9163588 Z" id="Path" fill="#2C8CF4" fill-rule="nonzero"></path>
                <path d="M42.0390747,31.8137532 C41.4548328,29.9404022 40.6669731,28.1367485 39.689615,26.4351159 C38.6562861,24.6442693 36.7622865,23.5235595 34.695166,23.4798206 C34.695166,23.1251852 34.695166,22.7853262 34.695166,22.4306908 C36.1728137,17.0963829 33.2175184,10.6095099 30.1735643,6.72329666 C29.8780348,6.35388475 29.5529523,5.94014342 29.168764,5.52640209 L28.1048577,7.47689694 C26.1921795,11.3186529 23.9265595,14.9743149 21.3372316,18.3967128 C20.790502,19.0912072 20.2142194,19.8743604 19.5788309,20.4654195 C27.1787673,27.9828933 35.5208223,34.7109959 44.4771933,40.5466506 C45.6002054,41.2706979 46.9153118,39.7782738 45.9548409,38.5813793 C44.3414352,36.5184308 43.0234959,34.2406337 42.0390747,31.8137532 Z" id="Path" fill="#F8FAFB" fill-rule="nonzero"></path>
                <path d="M71.7102388,88.1564568 C65.9499697,87.3460862 61.4493023,82.7727296 60.731317,77.0002173 C57.5601174,76.7396349 54.527389,75.5869932 51.9836432,73.6755102 C50.6496154,72.5797684 49.7061437,71.0816183 49.2943245,69.4051086 C49.1812425,68.0385014 48.8416771,66.700214 48.2895241,65.4450129 L48.038324,65.1494834 L47.3142767,64.9721657 C44.0036048,63.9786582 41.0223401,62.1102629 38.6848146,59.5639754 C36.4092373,56.9780921 36.1728137,54.0671263 35.4044369,50.9492898 C32.3546471,50.9324691 29.3989002,49.8917131 27.0113984,47.9939946 C24.7190071,45.9971164 23.3198258,43.1668334 23.1251852,40.1329093 C19.606307,40.4415019 16.072784,39.7337716 12.9441931,38.0937556 C10.2434555,43.4710617 8.04236461,49.0850801 6.36866123,54.865056 C9.07275637,59.1650106 19.2537484,71.7250153 34.2666482,87.698386 C50.6389838,105.119851 60.8643053,113.985737 64.9869422,116.660279 C70.829594,111.190207 76.1294715,105.167844 80.8125482,98.6773078 C76.1727346,96.7415895 71.3260505,93.2247881 71.7102388,88.1564568 Z" id="Path" fill="#5EB2FC" fill-rule="nonzero"></path>
                <path d="M78.1971119,97.3769779 C74.5177693,95.3378242 71.3999328,92.2643172 71.7102388,88.1416803 C65.9499697,87.3313097 61.4493023,82.7579531 60.731317,76.9854408 C57.5601174,76.7248584 54.527389,75.5722167 51.9836432,73.6607337 C50.6496154,72.5649919 49.7061437,71.0668419 49.2943245,69.3903321 C49.1812425,68.0237249 48.8416771,66.6854375 48.2895241,65.4302365 L48.038324,65.1347069 L47.3142767,64.9573892 C44.0036048,63.9638818 41.0223401,62.0954864 38.6848146,59.5491989 C36.4092373,56.9633156 36.1728137,54.0523498 35.4044369,50.9345133 C32.3546471,50.9176926 29.3989002,49.8769367 27.0113984,47.9792181" id="Path" stroke="#C7EBFF" stroke-width="0.59" stroke-linecap="round" stroke-linejoin="round"></path>
                <path d="M26.7454219,56.9337627 C22.5083904,54.430271 18.5462303,51.4883671 14.9242409,48.1565358 C14.7025938,47.9348887 14.4661702,48.3338535 14.5991585,48.5702772 C16.5607051,51.8629714 19.2496916,54.6631567 22.4602438,56.756445 C26.2430217,59.1945635 31.3261295,60.731317 32.242271,66.2872721 C32.242271,66.656684 32.7594477,66.5384722 32.7446712,66.1838367 C32.3638072,62.3098674 30.1272669,58.8614088 26.7454219,56.9337627 L26.7454219,56.9337627 Z" id="Path" fill="#92CDFA" fill-rule="nonzero"></path>
                <path d="M65.9621896,96.1948598 C59.6821872,94.1852591 58.248869,86.1173031 53.2987495,82.0389957 C48.34863,77.9606883 41.6844393,78.7881709 37.3253788,73.3947571 C37.1480611,73.17311 36.8082021,73.3947571 36.9411904,73.6902866 C39.7930503,79.6008771 46.4129116,81.3592778 51.5403489,83.6348551 C55.6925387,85.4819146 56.9928686,89.5454456 59.6969637,93.0474704 C61.3223761,95.175283 63.2728709,96.8598013 65.8439778,96.7711424 C66.1247308,96.8302483 66.2724956,96.2982952 65.9621896,96.1948598 Z" id="Path" fill="#92CDFA" fill-rule="nonzero"></path>
                <path d="M68.2820964,108.134253 C63.4206357,106.124652 60.2289169,101.041544 56.4609154,97.2144367 C53.0179965,93.6533059 49.0726773,91.8949053 44.8466052,89.7079868 C44.5362992,89.5454456 44.2850991,90.1217281 44.5806286,90.2990459 C47.1753212,92.1216336 49.6211324,94.147457 51.8949843,96.3574011 C53.7420438,98.0123664 55.8107505,99.3126963 57.6725865,100.952885 C60.9825171,103.90818 63.7752711,107.971711 68.0161198,108.873076 C68.51852,108.946959 68.6219553,108.267241 68.2820964,108.134253 Z" id="Path" fill="#92CDFA" fill-rule="nonzero"></path>
                <path d="M71.5624741,70.7054385 C71.9005698,70.8146436 72.2463037,70.8986076 72.5968274,70.9566385 C73.0043518,68.4317874 73.1183963,65.868265 72.9366864,63.3172004 C72.8184745,61.7065645 72.7150392,58.0715513 71.311274,57.2588451 C69.9075087,56.446139 68.799273,58.7364928 68.1195551,59.7708461 C66.8187229,61.6364556 65.8212908,63.696153 65.1642599,65.8735307 C66.7370054,68.1157714 68.9754632,69.8062464 71.5624741,70.7054385 Z" id="Path" fill="#F8FAFB" fill-rule="nonzero"></path>
                <path d="M72.242192,47.4324885 C68.8930664,44.9677697 64.8137407,43.6981836 60.6574347,43.8270283 C55.3970091,44.1225578 50.4468896,47.136959 45.1273582,46.176488 C44.0930049,45.9843938 43.9600166,47.8314533 44.9943699,48.0087711 L45.6445349,48.0974299 C50.6402928,54.2477907 56.0723765,60.0304907 61.8986587,65.4006835 C62.0128514,65.4863945 62.1588727,65.5177502 62.2981862,65.4864758 C62.4374998,65.4552013 62.5561068,65.3644392 62.622706,65.2381423 C66.2295009,59.7441413 69.50583,54.0401708 72.4342862,48.1565358 C72.5572404,47.9008082 72.4757448,47.5936326 72.242192,47.4324885 L72.242192,47.4324885 Z" id="Path" fill="#F8FAFB" fill-rule="nonzero"></path>
            </g>
            <path d="M15.0695166,283.368483 C15.6457992,258.248474 11.5822682,199.511981 3.24833567,179.238656 L0.765887675,173.209854 L6.26273681,170.387547 C11.8039154,167.550463 22.1178957,164.476956 31.9146994,162.674226 C39.2766346,161.409435 46.7281886,160.737412 54.1976255,160.664625 C57.596215,160.575966 60.5219573,160.487308 62.9748523,160.162225 L66.1813477,159.733707 L68.3534897,162.349144 C72.0180557,166.782086 77.5001284,177.790561 84.2234251,194.236779 C91.1535924,211.21495 98.6304893,231.916793 104.629739,248.555106 C110.407341,264.572806 114.973272,277.191916 117.278402,281.802177 L122.021651,291.318228 L112.165741,291.864957 L110.599435,291.864957 C103.211197,291.864957 91.5230043,289.604156 75.1358922,285.954367 C69.4620533,284.713828 63.6700501,284.094495 57.8621916,284.107307 C44.1200687,284.107307 32.2397819,287.417238 24.3786966,289.618933 L14.9365283,292.234369 L15.0695166,283.368483 Z" id="Path" fill="#F8FAFB" fill-rule="nonzero"></path>
            <path d="M34.323265,185.740305 C33.7472271,187.718407 33.0464026,189.658013 32.2250054,191.547461 C32.3284408,191.798661 32.4023231,192.020308 32.4762055,192.241955 C35.2985125,190.350566 43.3960214,189.685625 45.8636929,188.799036 C55.3354142,185.38567 63.9796527,179.93315 73.2888327,176.179925 C74.1310918,175.840066 74.973351,175.52976 75.8303866,175.204678 C73.7962364,170.661248 71.2849041,166.346908 68.3387132,162.334367 L66.1665712,159.718931 L62.9600759,160.147449 C60.0445384,160.461133 57.1151372,160.628809 54.182849,160.649849 C51.7151775,160.649849 48.9815294,160.797614 45.9966812,160.974931 C39.9974319,168.215405 37.3967721,176.948302 34.323265,185.740305 Z" id="Path" fill="#E3E9ED" fill-rule="nonzero"></path>
            <path d="M107.969222,284.062978 C101.098161,284.062978 89.3065329,281.757848 73.702574,278.314929 C67.6217072,276.979469 61.4134267,276.31058 55.1876494,276.320104 C40.6623733,276.320104 28.3240157,279.763023 20.1674009,282.038601 L18.6897533,282.452342 C19.2364829,258.617886 15.5866933,197.930898 6.32184271,175.396772 C10.7547856,173.106418 20.3151656,170.047688 30.348393,168.230181 C37.4237111,167.030824 44.5835026,166.398351 51.7595069,166.338792 C55.2615318,166.235357 59.2511803,166.161474 62.0143814,165.777286 C63.7580056,167.875546 68.1318425,174.643172 76.7908575,195.876968 C83.7505778,212.781257 90.2522273,233.379665 96.2367002,249.973647 C102.309832,266.804054 106.683669,278.965094 109.19567,283.959542 L109.19567,284.048201 L107.969222,284.062978 Z" id="Path" fill="#C7EBFF" fill-rule="nonzero"></path>
            <path d="M35.4462772,187.749906 L35.8156891,188.104542 C38.7925719,187.052281 41.8389266,186.207991 44.9327749,185.577764 C49.0501948,184.030348 53.2783926,182.795477 57.5814385,181.883645 C61.4545687,180.843108 65.2553423,179.549858 68.9593252,178.012208 C65.2799826,170.343217 63.0487347,167.107169 61.9848284,165.777286 C59.2216274,166.146698 55.2319788,166.235357 51.729954,166.338792 C48.7746587,166.427451 45.4499516,166.51611 41.7558326,166.796863 C38.7205613,173.465917 36.5982615,180.513741 35.4462772,187.749906 L35.4462772,187.749906 Z" id="Path" fill="#92CDFA" fill-rule="nonzero"></path>
            <path d="M72.4761265,228.917169 C68.4823328,227.68554 64.1995303,229.642666 62.5167816,233.468323 C60.4776279,238.403666 61.2164517,245.59981 63.211276,251.200095 C67.6442188,263.597558 79.6870469,270.67549 85.3759902,259.829557 C91.3013571,248.2448 81.5932123,231.990676 72.4761265,228.917169 Z" id="Path" fill="#92CDFA" fill-rule="nonzero"></path>
            <path d="M84.9326959,233.2319 C79.5688351,242.215997 75.6826218,252.278778 72.0623852,262.651864 C71.5090377,264.016262 71.652277,265.564348 72.4465736,266.804054 C72.7730206,267.517217 73.4948854,267.965471 74.2788566,267.941842 C75.2873839,267.991537 76.2174106,267.399164 76.5987634,266.464195 C80.9886901,256.099437 84.3732577,245.337106 86.7058731,234.325359 C86.9718496,232.906817 85.5828609,232.153217 84.9326959,233.2319 Z" id="Path" fill="#5EB2FC" fill-rule="nonzero"></path>
            <path d="M69.4173959,232.566958 C66.7133008,239.098161 65.7823828,213.357539 60.8618162,251.776377 C60.4776279,254.731673 63.1373936,257.273227 64.112641,254.480473 C66.565536,247.550305 68.0875131,240.23595 70.3483139,233.217123 C70.5699611,232.463523 69.6833725,231.990676 69.4173959,232.566958 Z" id="Path" fill="#5EB2FC" fill-rule="nonzero"></path>
            <path d="M53.1041663,243.619763 C48.4768402,249.879461 43.4887148,255.864225 38.1651489,261.543628 C35.8452421,264.085182 39.5098082,268.060054 41.770609,265.474171 C47.0384449,259.249412 51.283028,252.226647 54.3453903,244.668892 C54.7000257,243.811857 53.7100018,242.777503 53.1041663,243.619763 Z" id="Path" fill="#5EB2FC" fill-rule="nonzero"></path>
            <path d="M39.5541376,228.119239 C34.7361096,234.209152 29.5653298,240.011478 24.0683906,245.496375 C21.6746014,247.964047 25.2209557,252.05713 27.555639,249.545129 C33.0137701,243.514437 37.4733619,236.650456 40.7658087,229.212698 C41.1352206,228.414769 40.1747496,227.306533 39.5541376,228.119239 Z" id="Path" fill="#5EB2FC" fill-rule="nonzero"></path>
            <path d="M42.0218091,233.719524 C34.4858063,229.286581 26.2257561,235.684795 26.6099445,245.34861 C26.9941329,255.012426 36.2885364,263.568005 44.903222,258.145039 C53.1337192,252.973272 50.2227534,240.413267 43.8393157,235.005077 C43.2712989,234.525449 42.6632406,234.095359 42.0218091,233.719524 L42.0218091,233.719524 Z" id="Path" fill="#92CDFA" fill-rule="nonzero"></path>
            <path d="M46.1296695,231.38484 C40.3963968,238.773078 35.7861362,247.121787 29.6243456,254.199719 C27.5408625,256.563956 31.3236404,260.583157 33.451453,258.204145 C39.8053377,251.096659 46.114893,242.068233 47.4891053,231.975899 C47.538563,231.633115 47.3525881,231.29961 47.0349754,231.161517 C46.7173628,231.023425 46.3466228,231.11488 46.1296695,231.38484 L46.1296695,231.38484 Z" id="Path" fill="#5EB2FC" fill-rule="nonzero"></path>
            <path d="M69.387843,188.355742 C67.5703364,192.788685 65.8562652,197.354616 64.2604058,201.964876 C62.4351658,206.505968 60.8421724,211.136992 59.487604,215.839987 C59.2758383,216.409421 59.5301877,217.046659 60.0758542,217.313768 C60.6215207,217.580878 61.2808121,217.390877 61.6006401,216.874341 C63.8018783,212.686684 65.5694587,208.285062 66.875842,203.738053 C68.4816902,198.918997 69.692437,193.977174 70.4960787,188.961577 C70.629067,188.178424 69.698149,187.661247 69.387843,188.355742 Z" id="Path" fill="#5EB2FC" fill-rule="nonzero"></path>
            <path d="M56.074238,181.957528 C52.3510522,181.07082 48.5087755,182.872461 46.8093874,186.301812 C45.0362103,190.54266 45.9227988,196.527133 47.9471761,201.078288 C52.3801189,211.21495 63.8762174,216.475376 68.8411134,207.077537 C74.2049742,197.147745 64.6741471,184.041011 56.074238,181.957528 Z" id="Path" fill="#92CDFA" fill-rule="nonzero"></path>
            <path d="M64.3342881,179.17955 C59.7077441,187.20194 55.9433974,195.691532 53.1041663,204.50643 C52.6194295,205.658982 52.8006331,206.984034 53.5770135,207.964126 C53.9453111,208.559695 54.6251755,208.888104 55.3206377,208.806385 C56.2464767,208.804973 57.0828329,208.25321 57.4484502,207.402619 C61.2391402,198.589559 64.1111089,189.409163 66.0188064,180.007033 C66.2256771,178.795362 64.9105707,178.248632 64.3342881,179.17955 Z" id="Path" fill="#5EB2FC" fill-rule="nonzero"></path>
            <path d="M57.2563561,175.677525 C54.9216728,181.292586 51.9663776,186.4348 49.7794591,192.168073 C48.8780941,194.547085 52.0550364,196.601015 52.8972956,194.251556 C54.9955552,188.340965 56.2220027,182.105292 58.1577211,176.120819 C58.3350388,175.52976 57.4927797,175.116019 57.2563561,175.677525 Z" id="Path" fill="#5EB2FC" fill-rule="nonzero"></path>
            <path d="M37.6184192,198.920922 C34.655405,205.013502 31.350043,210.933554 27.7181802,216.652694 C26.1518737,219.209024 29.8312163,221.913119 31.3384169,219.327236 C34.8415335,213.173805 37.3688117,206.514153 38.8300903,199.585864 C38.9926315,198.832263 37.9435017,198.108216 37.6184192,198.920922 Z" id="Path" fill="#92CDFA" fill-rule="nonzero"></path>
            <path d="M31.4418522,190.069813 C24.423026,187.646471 18.4385532,194.502756 20.1969538,202.585488 C21.9553545,210.668221 31.0724403,216.224176 37.5149839,210.151044 C43.6767745,204.343889 39.3620434,194.295885 33.1559234,190.852966 C32.6086809,190.542071 32.0351052,190.280006 31.4418522,190.069813 L31.4418522,190.069813 Z" id="Path" fill="#5EB2FC" fill-rule="nonzero"></path>
            <path d="M27.5113095,188.547836 C25.7529089,191.503131 23.6694257,194.162897 21.7928133,197.04431 C20.3151656,199.246005 17.9509295,201.684123 18.1578001,204.521207 C18.1974573,204.83428 18.3637499,205.1174 18.6178758,205.304504 C18.8720018,205.491607 19.1917312,205.566328 19.5024595,205.511231 C22.0883428,204.624642 23.3443433,200.945299 24.5707908,198.492404 C26.0484384,195.537109 27.2305565,192.256731 28.6343217,189.183224 C28.7591725,188.880011 28.6386884,188.531281 28.353291,188.369806 C28.0678936,188.208331 27.7069175,188.284657 27.5113095,188.547836 L27.5113095,188.547836 Z" id="Path" fill="#92CDFA" fill-rule="nonzero"></path>
            <path d="M37.8548429,180.657198 C34.1311709,187.927224 31.5305111,195.729203 27.3635448,202.821912 C25.974556,205.186148 29.7573339,207.90502 31.1906521,205.526007 C35.4758302,198.418522 39.4507023,189.700401 39.0960668,180.967504 C39.1166135,180.653887 38.9098855,180.370472 38.6049809,180.294246 C38.3000763,180.21802 37.9842975,180.370808 37.8548429,180.657198 L37.8548429,180.657198 Z" id="Path" fill="#92CDFA" fill-rule="nonzero"></path>
            <path d="M48.8633176,160.531637 C62.250805,130.742261 90.2374509,77.6651587 99.9751487,61.3667055 L100.182019,61.0268466 L100.433219,60.7165406 C101.349361,59.5344225 103.270303,57.066751 114.928943,54.3922088 C121.13039,52.9212785 127.470657,52.1138851 133.842832,51.9836432 L135.616009,51.9836432 L136.310504,51.9836432 C139.264053,51.8585311 142.198555,51.4477997 145.072954,50.7571956 L148.146461,50.1513601 L159.657336,48.0235475 L154.456016,59.8447285 C125.124711,126.17633 115.091484,142.799866 108.427293,153.793564 C107.067857,156.024812 105.79708,158.123071 104.49675,160.398649 L103.772703,161.654649 L102.649691,162.452579 C100.580984,163.930227 97.6847948,164.521286 92.6460165,164.521286 C88.8780151,164.521286 84.592837,164.181427 81.460224,163.91545 C80.9726003,163.91545 80.3076589,163.91545 79.5688351,163.91545 C71.7668557,163.91545 61.5119812,165.821616 57.8178622,169.013334 L37.3524427,183.789811 L48.8633176,160.531637 Z" id="Path" fill="#F8FAFB" fill-rule="nonzero"></path>
            <path d="M123.911809,69.3016732 C129.52687,68.9913672 142.605282,67.7501432 148.205567,67.6023785 L151.027874,67.6023785 L154.44124,59.9038344 L159.642559,48.0826534 L148.131684,50.240019 L145.058177,50.8458545 C139.509611,51.8654313 135.32048,51.6585607 134.094032,51.8654313 C132.867585,52.072302 124.813174,67.5284961 123.911809,69.3016732 Z" id="Path" fill="#CFD9E0" fill-rule="nonzero"></path>
            <path d="M149.092155,56.8598803 C120.026827,122.733411 110.230023,138.869323 103.49195,149.95168 C102.117738,152.227257 100.817408,154.384623 99.4727485,156.70453 C97.1085123,158.389048 87.6515675,157.620671 81.8887418,157.147824 C77.0420576,156.763636 58.24638,158.551589 45.7454811,172.264159 C59.4432745,141.854171 89.4099682,83.7382904 98.527054,68.5924024 C104.201221,57.8351277 124.873511,58.3375279 135.468244,58.7660457 C139.901187,58.9433634 144.526224,57.7021394 149.092155,56.8598803 Z" id="Path" fill="#92CDFA" fill-rule="nonzero"></path>
            <path d="M144.17713,67.6688726 C145.654778,64.3884949 147.48152,60.4801169 148.959167,56.9189862 C144.437565,57.7612453 139.842081,59.0024693 135.379586,58.8251516 L129.863712,58.8251516 C128.513583,61.4010475 126.341074,66.7162847 125.309417,69.4354339 C134.804534,68.0016008 141.093772,67.412747 144.17713,67.6688726 Z" id="Path" fill="#5EB2FC" fill-rule="nonzero"></path>
            <path d="M114.293554,81.3445013 C110.7472,74.7394164 103.817032,79.6304301 99.9603722,83.1324549 C96.4337395,86.541114 93.6164348,90.6139022 91.670769,95.1161771 C89.1883211,100.450485 86.8240849,109.449359 93.532605,112.138678 C100.920843,115.093973 107.614587,109.079947 111.264376,102.253215 C113.85026,97.2144367 117.470496,87.2550918 114.293554,81.3445013 Z" id="Path" fill="#F8FAFB" fill-rule="nonzero"></path>
            <path d="M112.520377,112.375101 C106.905316,109.345924 105.560657,116.985362 102.959997,121.344422 C102.86427,119.9445 102.349386,118.605803 101.482349,117.502538 C99.7830545,115.359949 96.9311946,114.355149 94.6112878,116.024891 C92.0254045,117.812844 90.6511922,122.644752 89.7498271,125.600047 C89.1883211,127.461883 89.6463918,125.42273 89.7498271,124.890777 C89.7809197,124.067774 89.7114492,123.244052 89.5429565,122.437882 C89.4380138,121.302459 88.9106815,120.247794 88.0653089,119.482586 C87.7744716,119.236795 87.3946864,119.1227 87.0165449,119.167517 C86.6384035,119.212334 86.2958099,119.412044 86.0704846,119.71901 C84.4894016,121.654728 82.9526481,123.62 81.4011181,125.6296 C80.6327414,126.604848 79.8348116,127.580095 79.0664349,128.584896 L77.5887873,130.609273 C77.0371322,131.929305 76.6824967,131.958858 76.524881,130.697932 C75.904269,129.116849 77.4705755,127.742636 77.3671401,125.939906 C77.2986083,124.896531 76.7536079,123.94278 75.8894925,123.354023 C75.6829913,123.185804 75.3867228,123.185804 75.1802216,123.354023 C70.8044179,126.574885 67.9330108,131.4424 67.2304775,136.830169 C67.2304775,137.229134 67.7624306,137.480334 67.8954189,137.03704 C69.3730665,132.042591 71.2940084,128.038166 75.1949981,124.890777 C75.4757512,127.18113 72.8307619,129.574919 73.1262915,132.027815 C73.2025921,133.663992 74.4543014,135.003321 76.0815867,135.18998 C78.1502934,135.18998 79.7165998,132.530215 80.9282709,131.052567 C82.8935422,128.658778 84.8144841,126.205883 86.7058731,123.664329 C86.7058731,125.274965 86.2625788,127.47666 86.7058731,128.540566 C86.9928425,129.398775 87.6245431,130.098531 88.4490194,130.471508 C89.2734957,130.844485 90.2161246,130.856926 91.050157,130.505837 C93.222299,129.574919 94.0054523,126.604848 94.773829,124.506588 C95.084135,123.693882 95.9263942,120.073645 96.6799945,119.866775 C97.7143478,119.482586 98.1576421,120.989787 98.3054068,121.713834 C98.2648857,123.052931 97.9689805,124.371966 97.4335948,125.600047 C97.0628223,126.42936 97.1435788,127.390922 97.647481,128.146775 C98.1513831,128.902629 99.0079187,129.347005 99.9160427,129.323719 C107.983999,129.486261 107.304281,117.798068 112.653365,113.793643 C112.862471,113.606093 112.970331,113.330547 112.944112,113.050881 C112.917894,112.771215 112.760698,112.520518 112.520377,112.375101 Z" id="Path" fill="#F8FAFB" fill-rule="nonzero"></path>
            <path d="M63.492029,145.858596 C71.3235614,137.362122 96.6799945,136.180004 102.782679,138.470358" id="Path" stroke="#F8FAFB" stroke-width="0.59" stroke-linecap="round" stroke-linejoin="round"></path>
            <path d="M58.0690622,156.349894 C65.9005946,147.853421 91.2570277,146.671302 97.3597124,148.961656" id="Path" stroke="#F8FAFB" stroke-width="0.59" stroke-linecap="round" stroke-linejoin="round"></path>
            <path d="M60.2559807,150.720057 C68.0875131,142.223583 93.4439462,141.041465 99.5466308,143.331819" id="Path" stroke="#F8FAFB" stroke-width="0.59" stroke-linecap="round" stroke-linejoin="round"></path>
            <path d="M110.983623,89.2203631 C108.368187,90.4320341 105.516327,90.6980107 102.886114,92.04267 C100.241162,93.4402882 97.7026088,95.0305883 95.2910057,96.8006954 C92.8381107,98.5147666 90.4295451,100.34705 88.0800853,102.223662 C85.7306256,104.100275 83.3811659,105.577922 81.8444124,108.134253 C80.8543885,109.759665 82.5093538,112.183007 84.1495427,111.532842 C86.6763201,110.528042 88.7302503,108.282017 90.9171688,106.567946 C93.1040872,104.853875 95.3501116,103.139804 97.6847948,101.484838 C100.019478,99.829873 102.339385,98.3226724 104.570633,96.6086012 C106.801881,94.8945299 109.003576,92.1756583 111.412141,90.4615871 C111.958871,90.0478458 111.604235,88.93961 110.983623,89.2203631 Z" id="Path" fill="#5EB2FC" fill-rule="nonzero"></path>
            <path d="M115.40179,65.3711306 C108.161316,68.1047786 98.7043717,69.2868967 95.1875704,78.1971119 C94.9215938,78.8916063 95.4683234,79.5565477 96.0889354,79.2166887 C102.930444,75.4930167 108.752375,69.759744 115.741649,66.3020486 C116.258825,66.0656249 115.874637,65.1938128 115.40179,65.3711306 Z" id="Path" fill="#5EB2FC" fill-rule="nonzero"></path>
            <path d="M128.552854,69.449438 C123.853934,70.5281207 119.598309,71.0305209 115.10626,73.2174394 C110.614211,75.4043579 107.407716,77.2957468 104.762727,81.6991367 C104.589274,82.0038102 104.604907,82.3807555 104.802991,82.670021 C105.001075,82.9592865 105.346871,83.1101414 105.693645,83.0585725 C114.071907,81.0046423 120.824757,73.9562632 128.892713,70.8679797 C129.705419,70.5872266 129.380336,69.2868967 128.552854,69.449438 Z" id="Path" fill="#5EB2FC" fill-rule="nonzero"></path>
            <path d="M129.173466,85.7035618 C126.46937,86.9447858 123.514075,86.9891152 120.780427,88.4224334 C118.046779,89.8557516 115.224472,91.761917 112.520377,93.5350941 C109.816282,95.3082713 107.39294,96.9336836 104.910492,98.6920843 C102.664467,100.258391 100.196796,101.64738 99.457972,104.70611 C99.3249837,105.282393 99.6352897,106.080322 100.196796,106.183758 C102.605361,106.597499 104.348986,105.385828 106.358586,103.967286 C109.028203,102.085748 111.722447,100.253465 114.441319,98.4704372 C116.997649,96.7859189 119.598309,95.1900595 122.169416,93.5350941 C123.376197,92.7343137 124.522043,91.8452958 125.597558,90.8753284 C126.848303,89.4643608 128.170045,88.1179602 129.557654,86.8413504 C130.148713,86.4719385 129.808854,85.3637028 129.173466,85.7035618 Z" id="Path" fill="#92CDFA" fill-rule="nonzero"></path>
            <path d="M132.113984,174.081666 C132.113984,173.815689 132.113984,173.52016 132.113984,173.180301 C132.025325,168.629146 131.788902,157.990083 138.689516,140.066218 C139.93074,136.815393 141.349282,131.88005 142.708718,127.092472 C143.92501,122.321031 145.445163,117.632247 147.259872,113.054819 L149.254697,108.725312 L153.525098,109.508465 C156.724182,110.081173 159.968547,110.363077 163.218467,110.350724 C182.87118,110.350724 203.661682,101.573497 218.822346,86.8856799 L228.486162,77.517394 L228.693033,91.8949053 C228.811244,99.6082258 229.41708,102.445309 232.505363,113.542443 C233.052438,115.142186 233.709083,116.702336 234.470635,118.211809 C235.672214,120.438882 236.52914,122.835284 237.012189,125.319294 L237.499812,129.161178 L234.810494,131.510638 C230.126351,135.721934 212.069497,147.89775 188.190711,160.649849 C156.391735,177.62802 142.900812,180.346892 138.571304,180.73108 L132.143537,181.292586 L132.113984,174.081666 Z" id="Path" fill="#F8FAFB" fill-rule="nonzero"></path>
            <path d="M138.098457,174.066889 C138.098457,170.564864 137.226645,161.093143 143.270224,142.548666 C145.811778,134.717133 149.003497,119.482586 151.279074,114.56202 C170.769246,118.211809 201.681634,109.345924 223.521266,88.1416803 C223.639478,96.7563659 223.609925,104.129828 226.801644,115.56682 C227.835997,119.290492 230.806069,124.063294 231.086822,126.309318 C226.831197,130.136426 209.321072,141.972383 185.634381,154.621047 C158.327453,169.190652 143.772624,173.564489 138.098457,174.066889 Z" id="Path" fill="#C7EBFF" fill-rule="nonzero"></path>
            <path d="M177.522096,157.059165 C180.31485,151.562316 177.610754,143.848995 171.330752,144.587819 C170.96134,144.587819 170.680587,144.144525 170.784022,143.775113 C172.128682,138.795441 168.168586,137.864523 164.873432,139.150076 C164.385808,139.356947 164.045949,138.677229 164.25282,138.233935 C166.469291,133.342921 162.125007,131.717509 158.874183,133.313368 C158.636224,133.440223 158.344657,133.407022 158.141312,133.229915 C157.937966,133.052807 157.865053,132.768558 157.958041,132.515438 C158.355854,131.243029 158.560082,129.918037 158.563877,128.584896 C158.475218,125.851248 156.051876,126.545742 154.677663,127.683531 C154.506219,127.789648 154.293216,127.803518 154.109458,127.72053 C153.925699,127.637543 153.795269,127.468574 153.761522,127.269789 C153.155686,123.014164 150.03785,123.634776 147.850931,125.614824 C146.373284,131.525414 144.673989,138.189605 143.255447,142.563442 C137.211869,161.10792 138.068904,170.638747 138.083681,174.081666 C143.063353,173.638371 154.899311,170.210229 176.192213,159.526837 C176.66506,158.684578 177.108354,157.857095 177.522096,157.059165 Z" id="Path" fill="#5EB2FC" fill-rule="nonzero"></path>
            <path d="M223.846348,98.7364137 C220.078347,98.3226724 215.261216,99.5786729 218.600699,103.597874 C219.043994,104.129828 218.600699,104.972087 217.980087,104.809545 C214.049545,103.789969 211.123802,107.395429 214.241639,111.222536 C214.38922,111.396246 214.458612,111.62314 214.43344,111.849683 C214.408269,112.076226 214.290764,112.282354 214.108651,112.419431 C213.0756,112.869072 212.086298,113.413188 211.153355,114.044843 C210.184273,115.41234 209.880504,117.142737 210.325873,118.758539 C210.707062,119.299149 211.148241,119.794856 211.640979,120.236187 C211.787865,120.407418 211.856967,120.632001 211.831746,120.856187 C211.806525,121.080374 211.689251,121.28399 211.507991,121.418305 C209.898754,122.333865 208.609314,123.721302 207.813872,125.393177 C206.631754,127.72786 207.44446,128.850872 208.020742,131.067344 C208.446476,132.323809 208.345193,133.699131 207.739989,134.879674 C206.39533,137.687205 205.198435,140.199206 206.025918,143.080619 C219.05877,135.278639 228.190632,128.909978 231.145928,126.309318 C230.865175,124.07807 227.895103,119.290492 226.860749,115.56682 C225.266955,110.078283 224.256564,104.436935 223.846348,98.7364137 L223.846348,98.7364137 Z" id="Path" fill="#5EB2FC" fill-rule="nonzero"></path>
            <path d="M226.609549,114.887102 C215.210077,123.014445 203.028098,129.984061 190.244642,135.692381 C180.787697,140.051441 171.168211,144.026313 161.548725,147.868197 C154.559452,150.660951 147.289425,153.941329 139.856858,155.079117 C138.438745,161.303583 137.847517,167.687857 138.098457,174.066889 C143.772624,173.564489 158.34223,169.190652 185.634381,154.621047 C209.276743,141.972383 226.831197,130.136426 231.086822,126.309318 C230.806069,124.07807 227.835997,119.290492 226.801644,115.56682 L226.609549,114.887102 Z" id="Path" fill="#92CDFA" fill-rule="nonzero"></path>
            <path d="M174.226941,122.644752 C173.83867,122.192926 173.278768,121.924561 172.683356,121.904901 C172.087944,121.885241 171.511559,122.116087 171.094328,122.541317 C170.721002,122.901059 170.463717,123.364172 170.355505,123.8712 L170.355505,123.8712 C169.955077,124.532057 169.847992,125.329835 170.059975,126.072895 C170.207483,126.708589 170.602225,127.2593 171.156858,127.603172 C171.711492,127.947045 172.38029,128.055729 173.01527,127.905178 C173.987671,127.476513 174.700821,126.614183 174.939353,125.578606 C175.177884,124.543029 174.913833,123.455613 174.226941,122.644752 Z" id="Path" fill="#F8FAFB" fill-rule="nonzero"></path>
            <path d="M191.958713,123.176705 C191.484866,122.245578 190.613851,121.579984 189.590954,121.367359 C188.568057,121.154734 187.503947,121.418084 186.698287,122.083246 C185.136141,123.449697 184.092478,125.312635 183.742992,127.358448 C183.687177,127.566567 183.687177,127.785718 183.742992,127.993837 C183.406123,129.25524 184.122715,130.558136 185.368404,130.949132 C187.305621,131.505852 189.391604,130.935911 190.776595,129.471484 C192.453998,127.829968 192.926305,125.314934 191.958713,123.176705 L191.958713,123.176705 Z" id="Path" fill="#F8FAFB" fill-rule="nonzero"></path>
            <path d="M202.523893,111.931807 C202.243566,111.286031 201.602398,110.872186 200.898481,110.882677 C200.807183,110.816308 200.707893,110.761698 200.602951,110.720136 C199.799637,110.545777 198.987786,110.976682 198.682009,111.739713 C198.308434,112.535379 198.308434,113.456048 198.682009,114.251714 C198.944301,114.827522 199.527276,115.188966 200.159657,115.167855 L199.982339,115.167855 L200.144881,115.167855 L200.455187,115.167855 C200.661033,115.162467 200.865048,115.127635 201.061022,115.06442 C201.439431,114.923705 201.782408,114.701779 202.065822,114.414255 C202.713069,113.758969 202.894646,112.774938 202.523893,111.931807 L202.523893,111.931807 Z" id="Path" fill="#F8FAFB" fill-rule="nonzero"></path>
            <path d="M141.630035,154.754035 C149.018273,152.744434 204.104976,132.663203 224.688607,116.246538" id="Path" stroke="#5EB2FC" stroke-width="0.59" stroke-linecap="round" stroke-linejoin="round"></path>
            <path d="M145.782225,166.324016 L160.573477,151.311116" id="Path" stroke="#5EB2FC" stroke-width="0.59" stroke-linecap="round" stroke-linejoin="round"></path>
            <path d="M168.183363,149.065092 L158.327453,163.457379" id="Path" stroke="#5EB2FC" stroke-width="0.59" stroke-linecap="round" stroke-linejoin="round"></path>
            <path d="M189.254618,139.327394 L191.057348,147.764762" id="Path" stroke="#5EB2FC" stroke-width="0.59" stroke-linecap="round" stroke-linejoin="round"></path>
            <path d="M183.66911,142.031489 L182.088027,151.311116" id="Path" stroke="#5EB2FC" stroke-width="0.59" stroke-linecap="round" stroke-linejoin="round"></path>
            <path d="M176.251319,145.902926 L171.182987,157.044389" id="Path" stroke="#5EB2FC" stroke-width="0.59" stroke-linecap="round" stroke-linejoin="round"></path>
            <path d="M153.170463,153.837893 L139.649987,162.437802" id="Path" stroke="#5EB2FC" stroke-width="0.59" stroke-linecap="round" stroke-linejoin="round"></path>
            <path d="M198.416033,142.031489 L192.475889,137.967958" id="Path" stroke="#5EB2FC" stroke-width="0.59" stroke-linecap="round" stroke-linejoin="round"></path>
            <path d="M198.416033,135.515063 L206.39533,137.967958" id="Path" stroke="#5EB2FC" stroke-width="0.59" stroke-linecap="round" stroke-linejoin="round"></path>
            <path d="M205.759942,131.111673 L218.423382,131.111673" id="Path" stroke="#5EB2FC" stroke-width="0.59" stroke-linecap="round" stroke-linejoin="round"></path>
            <path d="M217.049169,125.038541 L227.215385,123.294917" id="Path" stroke="#5EB2FC" stroke-width="0.59" stroke-linecap="round" stroke-linejoin="round"></path>
            <path d="M192.874854,76.1136287 C191.589301,74.6359811 189.697912,72.9071334 187.688311,71.000968 C184.85916,68.4334176 182.180185,65.7051058 179.664685,62.8295767 C175.66026,57.938563 171.123881,52.3973845 165.50882,50.860631 C164.979721,50.7126713 164.432805,50.6380918 163.883408,50.6389838 C162.081886,50.7948089 160.311144,51.2026764 158.622983,51.8506549 C157.780723,52.1166314 138.453093,55.7516446 137.492622,56.0323976 L150.79145,41.2559215 C159.110606,34.2370953 164.563126,26.5976571 167.119456,19.209419 C168.892633,14.1115347 173.621106,4.72847237 180.167085,1.81750657 C182.941775,0.669172472 185.927856,0.120297571 188.929535,0.206870666 C199.553822,0.206870666 213.798345,5.52640209 219.073547,8.37826199 C219.531617,8.62946208 219.989688,8.89543865 220.388653,9.16141522 C220.787618,9.42739179 221.319571,9.73769779 221.792418,9.98889789 C224.162593,11.3380056 226.837741,12.060194 229.564845,12.0871575 C230.371465,12.0856538 231.176748,12.0214288 231.97341,11.8950633 L242.316944,10.2696509 L238.342071,21.1599139 C230.421488,42.3170658 217.552279,61.2712835 200.809822,76.4387112 L196.687185,80.2214891 L192.874854,76.1136287 Z" id="Path" fill="#E3E9ED" fill-rule="nonzero"></path>
            <path d="M143.772624,51.3187017 C148.826179,49.6046305 162.40576,42.763122 166.720491,43.7383695 C173.975741,45.3785583 179.295273,51.2004899 184.348828,56.8894332 C187.658758,60.6278817 194.293396,65.7553189 197.780644,69.3016732 C213.220632,54.1746891 224.830944,35.5840054 231.648328,15.0720057 C227.0065,16.0167587 222.181379,15.3549981 217.965311,13.1953932 C217.359475,12.8998637 216.75364,12.5747812 216.147804,12.2201458 C215.867051,12.0576046 215.541969,11.8802868 215.187333,11.7029691 C209.276743,8.74767389 188.589676,1.12301219 179.974991,5.42296675 C175.881907,7.46212046 170.296399,16.2836767 168.863081,20.9234903 C165.848679,30.8385058 151.485945,44.2555461 143.772624,51.3187017 Z" id="Path" fill="#F8FAFB" fill-rule="nonzero"></path>
            <path d="M164.814326,34.7394955 C163.17265,35.9294238 161.743846,37.3882027 160.588254,39.0542265 C159.59823,40.3250035 157.632959,42.172063 157.219217,43.7383695 C160.174513,44.2703226 165.582703,40.0738034 166.912586,37.1037317 C167.577527,35.5817546 166.188538,33.8676834 164.814326,34.7394955 Z" id="Path" fill="#92CDFA" fill-rule="nonzero"></path>
            <path d="M175.024871,21.1451374 C172.498094,18.6331364 171.360305,23.3025029 170.355505,25.5780802 C169.631457,27.2478221 165.922562,31.0601529 169.084728,31.1488118 C171.289056,31.4331113 173.442061,30.3360763 174.507694,28.3856107 C175.734142,26.5976571 176.842378,22.9774204 175.024871,21.1451374 Z" id="Path" fill="#5EB2FC" fill-rule="nonzero"></path>
            <path d="M185.457063,7.9349677 C187.496217,9.5456036 186.195887,11.7472986 184.792122,13.2249462 C183.063274,15.0572292 181.186662,16.6678651 179.457814,18.5297011 C177.728966,20.3915371 177.241343,17.3180301 177.21179,15.8847119 C177.47482,12.675127 179.085638,9.72733157 181.644732,7.77242646 C182.820795,7.0104632 184.350124,7.07566715 185.457063,7.9349677 L185.457063,7.9349677 Z" id="Path" fill="#2C8CF4" fill-rule="nonzero"></path>
            <path d="M183.979416,39.660062 C183.063274,38.9360147 181.02412,39.3645325 180.01932,39.349756 C177.595978,39.349756 173.118706,40.5762036 170.695364,40.5614271 C170.551137,40.5668675 170.416731,40.6359202 170.328319,40.7499998 C170.239908,40.8640794 170.206575,41.0114641 170.237293,41.1524861 C170.103905,41.2440074 170.015126,41.3873778 169.992642,41.5475743 C169.970158,41.7077708 170.016041,41.8700411 170.119081,41.9947453 C170.345004,42.2364449 170.603637,42.4453411 170.887458,42.6153573 L173.842753,43.8861342 C174.273807,44.0556791 174.693362,44.2531166 175.098753,44.4771933 C176.472966,45.1125817 177.817625,45.7922996 179.132731,46.5311234 C179.809561,45.8744912 180.400406,45.1346938 180.891132,44.3294285 C181.217568,44.0665299 181.493026,43.7459972 181.703838,43.383734 C182.751398,42.5232508 183.611371,41.4570854 184.230616,40.2511211 C184.274598,40.021379 184.175345,39.7878415 183.979416,39.660062 Z" id="Path" fill="#2C8CF4" fill-rule="nonzero"></path>
            <path d="M191.618854,25.8292803 L187.304123,23.4945971 L189.136406,27.92754 C189.401678,28.5040914 189.580905,29.1164508 189.668359,29.7450465 C189.759296,30.3739228 189.570308,31.0110842 189.151182,31.4886707 C188.609206,31.9465292 187.827152,31.9829038 187.245017,31.5773296 C186.650351,31.1488543 186.176887,30.5735701 185.870805,29.9075878 C184.914472,27.9128079 184.204892,25.8088795 183.757769,23.6423619 C182.553954,24.5485132 181.413506,25.5359143 180.344403,26.5976571 C179.505977,27.3811937 178.819648,28.312997 178.320025,29.3460817 C177.551649,31.0453764 179.029296,31.3409059 180.181861,31.8433061 C181.35506,32.3300107 182.495269,32.892711 183.595227,33.5278244 C184.67391,34.1779894 185.67871,35.3601075 186.905158,35.6408605 C187.945439,35.7620919 188.988086,35.4342495 189.771794,34.7394955 C191.493733,33.4357909 192.814712,31.6744863 193.584125,29.6563877 C193.825805,29.1403208 193.92284,28.5683212 193.864878,28.0014223 C193.582145,27.1100088 192.907155,26.3969148 192.032595,26.065704 L191.618854,25.8292803 Z" id="Path" fill="#92CDFA" fill-rule="nonzero"></path>
            <path d="M197.130479,12.1758164 C195.525473,11.9299714 193.895493,12.4243988 192.697537,13.5204757 C191.408347,14.8746401 190.822303,16.751373 191.111824,18.598519 C191.401345,20.445665 192.533496,22.0530884 194.175184,22.9478675 C197.603327,24.8688094 202.302246,21.4702199 202.612552,17.9534185 C202.848976,14.865135 200.056222,12.5304518 197.130479,12.1758164 Z" id="Path" fill="#5EB2FC" fill-rule="nonzero"></path>
            <path d="M195.475514,45.1716876 C194.095533,45.4128513 192.692698,45.4971205 191.293771,45.4228877 C190.430403,45.3864207 189.617504,45.8298206 189.180735,46.5754529 C188.219431,48.1513985 187.168577,49.6709426 186.033346,51.1266075 L186.240217,51.1266075 L186.387981,51.1266075 C187.938563,49.8017155 190.176858,49.6573093 191.88483,50.7719721 C194.914008,52.7667964 195.046996,56.446139 193.894431,59.6378578 C193.984757,59.7174151 194.090338,59.7777466 194.204737,59.8151755 C195.12691,58.355175 196.13857,56.9536555 197.233915,55.6186563 C197.83975,54.9241619 198.445586,54.2296675 199.080974,53.5351731 C199.907682,52.6140414 200.07281,51.2753244 199.494716,50.1809131 C198.951169,49.1539052 198.486823,48.0868983 198.105727,46.9891942 C197.821344,45.8008685 196.687621,45.0174534 195.475514,45.1716876 L195.475514,45.1716876 Z" id="Path" fill="#5EB2FC" fill-rule="nonzero"></path>
            <path d="M205.242765,32.3457063 C201.903281,31.2965765 195.933585,34.0154481 198.179609,38.8178029 C198.489915,39.4975208 199.317398,39.2463207 199.509492,38.6257087 C199.967563,37.1480611 200.765493,35.5965311 202.154481,35.1975662 C203.879223,34.871064 205.640557,35.5458605 206.705636,36.9411904 C207.739989,38.1971909 208.390154,40.4875447 207.030718,41.8026511 C206.809756,42.0997663 206.473779,42.2899667 206.105316,42.3265317 C205.736853,42.3630967 205.370047,42.2426382 205.095,41.9947453 C204.772318,41.8035516 204.562851,41.467301 204.533494,41.0933802 C204.714803,41.4231612 205.069681,41.6191939 205.445367,41.5970947 C205.821053,41.5749956 206.1505,41.3387085 206.291895,40.9899449 C206.700171,40.2542782 206.717913,39.3642363 206.339278,38.6128836 C205.960644,37.8615308 205.23471,37.3462545 204.400506,37.2367199 C202.420458,37.0594022 201.282669,39.5714032 201.44521,41.4775686 C201.844175,46.4424646 207.577448,47.0778531 209.853025,43.4280635 C212.586674,39.03945 209.350625,33.6164833 205.242765,32.3457063 Z" id="Path" fill="#2C8CF4" fill-rule="nonzero"></path>
            <path d="M210.976038,21.381561 C210.889703,21.2796531 210.777358,21.2030544 210.650955,21.1599139 C210.314308,21.0683303 209.960222,21.2298433 209.808696,21.5441023 C209.154486,22.6268291 208.433991,23.6680924 207.65133,24.6619387 C206.894416,25.3738076 206.308423,26.2477464 205.937259,27.2182691 C205.900667,27.3485931 205.932652,27.4885815 206.022212,27.5900823 C206.111771,27.6915831 206.246687,27.7407493 206.380554,27.7206693 C207.40013,27.558128 208.24239,26.2430217 208.892554,25.4894214 C209.683809,24.4918548 210.418847,23.4509616 211.094249,22.3715849 C211.249791,22.0465137 211.203744,21.6608713 210.976038,21.381561 Z" id="Path" fill="#92CDFA" fill-rule="nonzero"></path>
            <path d="M212.734438,21.6475376 C211.922058,22.7778594 211.205377,23.9739753 210.591849,25.2234448 C209.767822,26.2528085 209.073073,27.3792945 208.523143,28.5777049 C208.460719,28.7535179 208.497826,28.949324 208.620247,29.0901077 C208.742667,29.2308915 208.931424,29.2948281 209.114202,29.2574228 C210.317807,28.6419601 211.337341,27.7192821 212.069497,26.5828806 C213.108264,25.4998945 213.90861,24.2112876 214.418957,22.8001027 C214.542044,22.3557418 214.369076,21.8822792 213.988533,21.6219072 C213.607989,21.3615351 213.104026,21.3718348 212.734438,21.6475376 L212.734438,21.6475376 Z" id="Path" fill="#92CDFA" fill-rule="nonzero"></path>
            <path d="M216.945734,21.1599139 C215.908448,22.2754885 215.06894,23.5597373 214.463286,24.9574682 C213.621027,26.4351159 212.823097,28.0753047 212.025167,29.6416112 C211.729638,30.2178938 212.468462,30.9271646 212.882203,30.380435 C213.867301,29.0012972 214.8524,27.6024575 215.837498,26.1839158 C216.84687,25.0120553 217.651174,23.6782083 218.216511,22.2385966 C218.393829,21.4997728 217.55157,20.6870666 216.945734,21.1599139 Z" id="Path" fill="#92CDFA" fill-rule="nonzero"></path>
            <path d="M222.073171,21.0269256 C222.044874,20.8777044 221.946619,20.7511589 221.809062,20.6867707 C221.671506,20.6223824 221.511392,20.6279897 221.378677,20.7018431 C219.901029,21.5293258 219.3543,23.864009 218.423382,25.3416566 C217.3129,27.3444921 215.990184,29.2220554 214.478062,30.9419411 C214.079098,31.3852354 214.611051,32.242271 215.098674,31.8580826 C216.882241,30.482587 218.450983,28.8491034 219.753264,27.0113984 C220.876277,25.4598684 222.649454,23.0808558 222.073171,21.0269256 Z" id="Path" fill="#92CDFA" fill-rule="nonzero"></path>
            <path d="M190.274195,9.04320341 L189.742241,8.95454456 C189.165959,9.8559096 188.589676,10.7424982 187.998617,11.5699808 C186.12693,14.2494485 184.230616,16.9092142 182.309674,19.549278 C182.881031,19.549278 183.442537,19.549278 183.994192,19.549278 L188.766994,13.2988285 C189.683135,12.0871575 190.687936,10.86071 191.722289,9.60470951 C191.224903,9.4578808 190.740546,9.27006887 190.274195,9.04320341 L190.274195,9.04320341 Z" id="Path" fill="#CFD9E0" fill-rule="nonzero"></path>
            <path d="M180.994567,21.3520081 C180.107979,22.5784556 179.22139,23.8049031 178.320025,25.0165741 C176.684762,27.2330456 175.039648,29.4347405 173.384682,31.621659 L174.507694,31.9171885 C176.074001,29.9469917 177.630456,27.9472419 179.177061,25.9179392 L182.752968,21.3076786 L180.994567,21.3520081 Z" id="Path" fill="#CFD9E0" fill-rule="nonzero"></path>
            <path d="M165.863456,42.6892396 C168.040523,40.0294739 170.202814,37.3500063 172.350329,34.6508366 L171.168211,34.5621778 C169.030547,37.3894102 166.868256,40.1969407 164.681338,42.9847692 C165.070158,42.8664479 165.464699,42.7678128 165.863456,42.6892396 Z" id="Path" fill="#CFD9E0" fill-rule="nonzero"></path>
            <path d="M181.748168,50.3730072 C184.452263,47.0778531 187.156358,43.7679224 189.860453,40.4579917 L187.895182,39.4679678 C185.393032,42.6005808 182.930286,45.7676722 180.506944,48.969242 C180.930536,49.4223873 181.344277,49.890309 181.748168,50.3730072 Z" id="Path" fill="#CFD9E0" fill-rule="nonzero"></path>
            <path d="M207.518342,15.7369471 C204.917682,18.7809012 202.336725,21.8494828 199.775469,24.9426918 L201.164457,25.725845 L201.947611,26.1248099 C204.676333,22.9724949 207.424758,19.8349565 210.192884,16.7121945 L207.518342,15.7369471 Z" id="Path" fill="#CFD9E0" fill-rule="nonzero"></path>
            <path d="M198.430809,26.5976571 L196.58375,28.828905 C194.406682,31.4886707 192.23454,34.1582874 190.067324,36.8377551 L192.224689,37.48792 L192.328125,37.48792 C194.298322,35.1236838 196.268518,32.7791496 198.238715,30.4543174 L200.662057,27.6467869 L198.430809,26.5976571 Z" id="Path" fill="#CFD9E0" fill-rule="nonzero"></path>
            <path d="M195.046996,65.3268011 C195.685058,66.024337 196.286765,66.754277 196.849726,67.5137196 C198.223939,65.5927777 199.539045,63.6570593 200.854151,61.9282116 C202.44016,59.820101 204.016317,57.7021394 205.582624,55.5743269 C205.227988,54.7616207 204.8438,53.963691 204.444835,53.1805377 L204.370953,53.0475494 C202.548521,55.4314876 200.711312,57.8055748 198.859327,60.1698109 C197.603327,61.7804469 196.184785,63.3910828 194.78102,65.0460481 L195.046996,65.3268011 Z" id="Path" fill="#CFD9E0" fill-rule="nonzero"></path>
            <path d="M215.261216,38.418838 C213.616101,40.6944154 211.956211,42.9552162 210.281543,45.2012406 C209.099425,46.7675471 207.917307,48.3338535 206.735189,49.8853835 C207.269716,50.5130081 207.763286,51.1743916 208.212837,51.8654313 C209.468837,50.1513601 210.724838,48.4372889 211.951285,46.7084412 L216.738863,40.1329093 L215.261216,38.418838 Z" id="Path" fill="#CFD9E0" fill-rule="nonzero"></path>
            <path d="M227.230161,21.0269256 C224.274866,25.6962921 221.245689,30.3952115 218.26084,35.0793544 C218.812495,35.5423507 219.349374,36.0348999 219.871476,36.557002 C223.018866,31.5034472 226.121926,26.3907864 229.047668,21.1894668 C228.441832,21.1303609 227.835997,21.0860315 227.230161,21.0269256 Z" id="Path" fill="#CFD9E0" fill-rule="nonzero"></path>
        </g>
    </g>
</svg>